<svg width="720" height="640" viewBox="0 0 720 640" fill="black" xmlns="http://www.w3.org/2000/svg">
  <g xmlns="http://www.w3.org/2000/svg" fill="none" fill-rule="evenodd">
    <rect width="720" height="640"/>
  </g>
<g transform="translate(120, 80)"><path xmlns="http://www.w3.org/2000/svg" d="M393.13 244.9l.01.1-.01-.1zm-276-109.4l.01.1c-.01-.06-.01-.08-.01-.1z"/><path xmlns="http://www.w3.org/2000/svg" d="M258.65 47.78s-1.83 1.25-3.23 1.32c-1.4.07-1.47-.07-1.47-1.03s-.15-1.54-.37-2.27-1.17-1.83-1.17-1.83-.8 1.54-2.64 1.98-3.6-.3-6.53-1.54c-2.94-1.25-5.72-1.47-8.15-.8-2.42.66-3.3 1.4-4.26 2.13s-2.35 2.95-2.35 2.95-2.83-.33-5.87 1.08c-3.34 1.56-4.77 5.87-5.14 9.03s.6 6.68 1.17 8.5 1.65 4.13 1.65 4.13.18-.22.5-.5l.12.6c-1 1.04-1.6 2.48-1.6 4.1 0 3.15 2.37 5.7 5.3 5.7.37 0 .72-.05 1.07-.13l-6.87 22.43-2.2 5.7s3.2 4.1 10.8 5.7c5.2 1.1 8.7 1.2 11 1 1.9-.2 4.2-.6 3-4.1-1.7-5.2-1.1-8.5-1.1-8.5l2.4-13.1c1.63.3 3.14.35 4.3-.01 3.2-1 5.9-4.4 6.9-10.1.5-3.3.8-9.2.8-13.4 0-1.1-.1-3.4-.3-5.4-.07-.52-.16-1.02-.26-1.5a11.2 11.2 0 0 0 3.3-2.34c4.94-5.07 1.2-9.77 1.2-9.77zM228 79.98c.01.03.02.06.02.1l-.08-.05c.02-.01.04-.02.06-.04z" fill="#fff"/><path xmlns="http://www.w3.org/2000/svg" d="M251.84 60.06l.33-.04c-.01-.03-.1-.01-.33.04zm-29.67 9.24l.08-.04c-.06.02-.07.04-.08.04zm38.87-18.16v.02l.03.1-.03-.12z"/><circle xmlns="http://www.w3.org/2000/svg" cx="242.07" cy="71.92" r="1.4"/><path xmlns="http://www.w3.org/2000/svg" d="M224.93 72.6c-1.6 0-2.9 1.35-2.9 3s1.3 3 2.9 3 2.9-1.35 2.9-3-1.3-3-2.9-3zm0 5c-1.05 0-1.9-.9-1.9-2s.85-2 1.9-2 1.9.9 1.9 2-.85 2-1.9 2zm18.47-13.47c-3.6-.3-5.2 2.1-5.3 2.2-.2.3-.18.75.15 1 .5.38.92.16 1.15-.1.12-.13 1.2-1.8 3.9-1.6.4 0 .8-.3.8-.7s-.3-.8-.7-.8zm7.14.57c.15-.02 1.24-.35 2.1.14.14.08.3.16.4.16.2 0 .5-.1.6-.3a.78.78 0 0 0-.2-1c-1.4-1-3.13-.44-3.28-.4a.73.73 0 0 0-.52.9c.1.4.5.54.9.5z"/><circle xmlns="http://www.w3.org/2000/svg" cx="252.07" cy="71.12" r="1.4"/><path xmlns="http://www.w3.org/2000/svg" d="M244.3 82.84c-3.6.17-4.65-2.7-4.7-2.85-.18-.4-.56-.54-.95-.4s-.55.56-.4.95c.55 1.45 2.42 3.98 6.22 3.8.4-.04.67-.37.62-.87a.75.75 0 0 0-.77-.62zm16.75-31.68l-.57-2.03-.22-.55-.18-.37-.23-.4c-.32-.52-.68-.98-1-1.3l-.47.35-.78.37-.46.3-.27.16a1.93 1.93 0 0 1-.56.21l.01-.04c-.48.3-1.07.28-1.2.32l.01-.03c-.05 0-.1.01-.15 0l.05-.03c-.06.02-.1-.02-.12-.07-.01-.03-.01-.04-.02-.1l-.02-.38c-.04-.63-.17-1.27-.3-1.8l-.1.12c-.04-.18-.07-.36-.17-.6l-.13-.3c-.04-.1-.12-.22-.18-.33a8.35 8.35 0 0 0-.82-1.12l-.52-.03c-.14-.01-.26-.05-.34.02-.18.1-.43.18-.83.28-.22.33-.58.66-.68.7-.16.12-.35.22-.56.3v-.04c-.8.6-1.73.55-2.55.32l-2.95-.96c.3.08-.1-.1-.06-.13-1.06-.42-2.35-.9-2.44-.65-.85-.28-.68-.28-.76-.42-.02.1-.8-.06-1.48-.17l.33.02a11.3 11.3 0 0 0-2-.2 4.79 4.79 0 0 1 .38.23c-1.05-.1-.26-.3-1.3-.23l.02.17c-1.46.03-2.4.01-3.8.34-1.22.38-2.46 1.15-3.42 1.98-.6.52-.96 1.03-1.35 1.56l-.55.8-.13.2-.04.08c-.03.04-.05.1-.08.14h-.2l-.66.02-1.3.15a14.34 14.34 0 0 0-2.52.65c-.8.3-1.6.65-2.33 1.18-.7.52-1.3 1.13-1.83 1.77l-.25.13c-.26-.02-.6 1.5-.8 1.6l-.2.65c-.1.15-.27.5-.2.18-.23.56-.2.6-.3 1l-.3.58c-.74 2.24-.7 4.37-.43 6.8.05 1.16.33 2.68.8 4.24.23.78.53 1.6.85 2.34l.5 1.13.8 1.72c.08 0 .13.01.2.02a6.42 6.42 0 0 0-1.07 3.57c0 3.42 2.6 6.2 5.8 6.2.12 0 .24-.02.36-.03l-6.63 21.65-2.3 5.96.17.22c.14.17 3.4 4.26 11.1 5.88 3.44.73 6.48 1.1 9.08 1.1a22.56 22.56 0 0 0 2.07-.09c1.28-.13 2.7-.37 3.4-1.45.5-.8.52-1.88.03-3.3-1.63-5-1.1-8.22-1.08-8.25l2.32-12.6c.68.1 1.35.18 1.96.18.76 0 1.46-.1 2.08-.28 3.63-1.14 6.27-4.96 7.25-10.5.1-.64.18-1.36.26-2.14 1.83-.73 3.13-3.16 3.13-6.12 0-2.67-1.06-4.9-2.6-5.86-.03-1.26-.13-3.14-.3-4.8-.02-.17-.06-.33-.1-.5 1.08-.5 2.23-1.22 3.5-2.52.85-.9 1.65-1.98 2.17-3.23a7.87 7.87 0 0 0 .55-3.9zm-18.22 15.72c-2.38 0-4.45 2.33-4.9 5.35l-3.22-.56c.1-.15.2-.33.17-.34.86-1.33 1.18-2.73 1.42-4.14 0 0 .06-.32.1-.86s.07-1.3-.03-2.17c-.2-1.83-1.2-3.7-2.13-4.98-.25-.34-.34-.46-.42-.7-.03-.1-.05-.2-.07-.27a1.12 1.12 0 0 0 .22-.03l.02.08c.02.02.05.03.07.04l.13.05a20.69 20.69 0 0 1 .76.35l1.04.52c3.87 1.95 6.4 2.96 11.87 2.92 2.42-.01 3.98-.3 5.5-.76l.5-.18c.01.08.03.15.04.22a73.09 73.09 0 0 1 .28 4.29c-.22-.05-.44-.08-.67-.08-2.2 0-3.95 2.33-4.24 5.44a2.4 2.4 0 0 0-.76-.09 1.91 1.91 0 0 0-1 .31c-.7-2.54-2.56-4.4-4.7-4.4zm4 6.6c0 3.1-1.8 5.6-4 5.6s-4-2.5-4-5.6 1.8-5.6 4-5.6 4 2.5 4 5.6zm-7 29.82c-.03.14-.6 3.5 1.12 8.75.38 1.1.4 1.93.07 2.45-.45.7-1.6.88-2.64 1-2.9.25-6.55-.08-10.85-1-6.34-1.33-9.56-4.47-10.33-5.3l2.1-5.45 6.78-22.16c.58-.16 1.13-.4 1.63-.75.08.3.16.6.22.88.53 2.22 2.42 4.1 5.96 5.93 2.5 1.3 5.52 2.5 8.25 3.06l-2.3 12.6zm13.6-23.2c-.9 5.15-3.3 8.7-6.56 9.7-3 .94-8.62-1.07-12.52-3.07-3.2-1.65-5-3.38-5.44-5.27a24.44 24.44 0 0 0-.35-1.35l-.25-1.25c-.88 1.16-2.2 1.92-3.7 1.92-2.65 0-4.8-2.33-4.8-5.2s2.15-5.2 4.8-5.2c1.2 0 2.28.48 3.12 1.27a3.37 3.37 0 0 1 .29.35l.23.36c.07.12.28.38.46.5.4.3.8.44 1.14.52l.93.2c.92.08 1.54-.14 2.2-.45a5.42 5.42 0 0 0 .9-.6l3.95.67c0 .08-.01.17-.01.25 0 3.6 2.2 6.6 5 6.6 2.7 0 5-3 5-6.6a8.76 8.76 0 0 0-.07-1.03c.05-.05.1-.1.17-.14-.01.1.01.23.07.35.5 1.3 1.4 3.8 1.3 4.7s-.85 1-1.2 1.1c-.45.12-.75.45-.65.9.12.58.65.63.95.6.8-.1 2.2-.9 2.3-2.4a4.77 4.77 0 0 0-.04-.82c.76 1 1.76 1.62 2.88 1.62.04 0 .08-.01.12-.01l-.22 1.75zm.32-2.77c-.07.01-.15.02-.22.02-1.78 0-3.3-2.45-3.3-5.35s1.5-5.35 3.3-5.35a2.01 2.01 0 0 1 .69.13c0 3-.16 7.2-.47 10.55zm1.47-9.9c.95.95 1.6 2.66 1.6 4.56 0 2.18-.85 4.1-2.02 4.93.26-3.05.4-6.68.43-9.5z"/><path xmlns="http://www.w3.org/2000/svg" d="M405.76 331.53v-.1c-.01.07-.01.1 0 .1z"/><path xmlns="http://www.w3.org/2000/svg" d="M87.3 321.23L136 298.8c13.7-6.5 22.96-10.34 31.06-13.24s13.1-11.37 13.1-11.37l22.4 34.17 3.08 2.8-115.05 36.4-3.27-26.34z" fill="#fff"/><path xmlns="http://www.w3.org/2000/svg" d="M99.26 323.1l-.02.07c.02-.01.04-.04.02-.07zm4.1 14.53zm-4.6-12h0c0-.01 0-.01-.02-.02l.02.02zm26.47-22.34l.7-.28c-.02-.01-.2.06-.7.28zm-1.66 34.3l-.17.06c.12-.05.16-.06.17-.06z"/><path xmlns="http://www.w3.org/2000/svg" d="M258.4 307.5s0 22.1 8 40.7l17.6 41.7 8.6 22.1 14.7 5 13.4-10.3s-3.7-5.2-4.8-10.2l-18.7-81.4-2.5-18.6-36.3 11z" fill="#fff"/><path xmlns="http://www.w3.org/2000/svg" d="M158.6 278.07h-.04c-.06.01-.14.01-.2.02l.23-.02zm118.84 97.73c-.01-.02-.01-.03-.02-.04l-.08-.18.1.22zM99 322.2l-.13-.42c-.1-.13-.08.05-.18 0-.06-.13-.15-.24-.14-.4l-.07.07c-.13-.23-.17-.4-.13-.58-1.18-1.68-1-.14-1-.14.03.8.37 1.1.68 1.96.17.78.08 1.02.36 1.8.1.38.25.78.37 1.14.17.14.14.5.3.67l-.05.1c.06.07.1.14.1.22h-.02c.1.1.1.22.13.27h-.02l.05.13-.04-.02a1.46 1.46 0 0 1 .19.54l.08-.04c.01.4.22.47.2.83h-.02c.34.36.04.7.36 1.07-.04-.05-.04.04-.06.03.08.2.15.4.32.35.04.14-.02.13-.08.17.08-.03.14.1.17.2l-.05-.05.1.3.12-.1c.01.18-.16.1-.07.24l.12-.03c.04.24-.1.43-.1.68.22.96.8 1.9.84 2.83l-.07.06c-.12.05.25.2.14.26l.08.1c-.01.03-.02.1-.07.06.02.1.04.1.1.16l-.05.12c.04.4.28.66.36 1.07-.03.52.37 1.36.6 1.86.4.67.13 1.64.55 2.33-.01.03.05.08.06.07l.17.68s.88 3.3 1.2.5h.03c-.04-.4-.1-.63-.3-.84.16-.1-.07-.3-.04-.4v.01c-.2-.2-.03-.5-.2-.68.01.01.06 0 .08.05-.07-.16-.16-.36-.07-.4-.13-.37-.23-.92-.46-1.1l.03.01c-.14-.1-.06-.18-.16-.3.01-.01.01-.03.02-.03-.15-.12-.14-.44-.22-.55l.07-.02-.1-.3v.12c-.2.01.04-.26-.13-.44-.03-.2-.48-.3-.46-.55-.1-.08.16.05.06-.08.1-.03.07.06.14-.01-.08-.14.03-.27-.1-.43l.07-.02c-.2-.2-.03-.48-.2-.6-.13-.23.16-.23-.04-.44l.07-.13c-.02-.1-.14-.04-.13-.18.06-.01 0-.17.1-.12.02-.3-.3-.52-.24-.92-.14-.04-.12-.24-.23-.28.04-.03-.1-.37.08-.2.02.02.02.05 0 .05h.08c.07-.24-.18-.35-.2-.56-.01.07.02.14-.04.1l-.05-.2.07.03-.04-.3-.06.06c0-.15.1-.23-.03-.36-.08-.06-.06.16-.13.02l-.05-.74c-.08.05-.1-.02-.13-.08l.08-.03c-.18-.22.13-.13-.01-.37h-.1c-.2-.18.1-.16-.15-.36.04.1-.15.1-.15-.04h.08c-.03-.06-.07-.08-.07-.13.05.02.1-.01.07-.1l.1.04-.18-.15c.04-.16-.12-.37-.04-.45 0 0-.04-.32-.16-.37.08.05.06-.14.15-.1-.1-.06-.23-.28-.17-.4l.02.02c-.02-.38-.28-.57-.27-.9-.08.04-.08-.14-.18-.08-.2-.3.05-.66-.32-.68-.06-.14.02-.2.03-.28l.03.03-.18-.56c-.07-.1-.22-.07-.23-.27.08.05.04-.03.03-.1.03.04.05.05.07-.06-.02 0-.04-.03-.06-.04 0 0 .01 0 .02-.01-.05-.1-.07-.08-.06-.03-.01 0-.02.01-.03.03.04-.14-.1-.34 0-.37-.12-.34-.3-.55-.43-.84.05-.05.1 0 .16.08l-.08-.2c.08-.02.08.1.1.16.06-.28-.26-.47-.23-.8l-.08-.05v-.02c-.03.01-.1-.04-.12-.1.05-.06.15-.04.12-.18.04-.13-.12-.3-.2-.45.01.08-.03.06-.07.05-.02-.07.04-.13-.01-.18l.08-.03c-.08.05-.14-.16-.2-.18.05.04.1.2.14.2z"/><path xmlns="http://www.w3.org/2000/svg" d="M101.57 330.14h.05zM296 405.36c-1.6 1.1-.14 1-.14 1 .74.01 1.04-.32 1.85-.6.74-.14.97-.03 1.7-.28.36-.08.74-.2 1.08-.32.14-.16.46-.12.63-.27l.1.05c.06-.05.13-.1.2-.08v.02c.1-.08.2-.08.25-.1v.02l.12-.04-.01.03c.16-.1.34-.15.5-.16l-.03-.08c.37.01.45-.2.8-.16h0c.34-.32.66 0 1-.32-.04.04.03.04.03.06.18-.07.38-.13.34-.3.14-.03.12.02.16.08-.02-.07.1-.13.2-.16l-.04.04.3-.1-.1-.12c.17 0 .08.16.23.1l-.03-.1c.23-.03.4.1.64.14.9-.18 1.8-.7 2.68-.72l.06.08c.05.12.18-.24.24-.13l.08-.08c.03.02.1.02.06.07.1-.02.1-.04.14-.1l.12.05c.37-.03.63-.25 1-.32.5.05 1.3-.3 1.75-.52.63-.36 1.55-.06 2.2-.45.03.01.08-.04.07-.06l.64-.14s3.1-.73.5-1.17l.01-.03c-.37.02-.6.06-.8.26-.08-.16-.3.05-.4.02v-.02c-.18.18-.47 0-.64.17 0-.02 0-.06.04-.08-.14.06-.34.15-.38.05-.35.12-.86.2-1.05.4v-.03c-.1.14-.17.06-.3.15-.01-.01-.02-.01-.02-.02-.12.14-.4.12-.5.2v-.06l-.28.1.1-.01c.01.2-.24-.06-.42.1-.2.03-.3.47-.52.43-.07.1.05-.16-.08-.06-.03-.1.05-.07 0-.14-.13.08-.25-.04-.4.07l-.03-.07c-.2.2-.45.01-.57.17-.22.12-.2-.18-.4.03l-.12-.07c-.1.01-.04.14-.17.12-.01-.06-.16-.01-.1-.1-.28-.03-.5.27-.87.2-.04.14-.23.1-.27.2-.02-.05-.35.08-.18-.08.01-.01.04-.02.05 0l.01-.08c-.23-.1-.33.16-.53.2.06.01.14-.02.1.05l-.18.04.02-.07-.28.03.06.06c-.14-.01-.22-.12-.34.02-.05.08.15.07.02.13a3.35 3.35 0 0 0-.7.02c.04.08-.02.1-.08.12l-.03-.07c-.2.16-.13-.14-.34 0l-.02.1c-.18.2-.15-.12-.34.13.1-.04.08.15-.04.15l.01-.08c-.06.03-.07.07-.12.06.03-.05-.01-.1-.1-.07l.04-.1-.14.17c-.15-.04-.35.1-.43.02 0 0-.3.03-.34.15.04-.08-.13-.07-.1-.16-.06.1-.26.2-.37.15h.01c-.35 0-.54.26-.86.23.03.08-.13.07-.07.17-.28.18-.6-.08-.64.28-.14.05-.2-.04-.26-.04l.03-.03c-.25.1-.33.12-.53.16-.1.06-.07.2-.25.22.04-.08-.03-.05-.1-.03.04-.02.05-.05-.05-.07-.01.02-.02.04-.04.05l-.01-.01c-.1.05-.08.06-.03.06 0 .01.01.02.03.03-.13-.05-.3.08-.35-.02-.32.1-.53.27-.8.38-.04-.05.01-.1.08-.15l-.2.07c-.02-.08.1-.07.16-.1-.26-.07-.44.24-.74.2l-.04.08-.02-.01c.01.03-.04.1-.08.1-.06-.06-.04-.16-.17-.12-.12-.04-.3.1-.42.18.08-.01.06.04.04.07-.07.02-.12-.04-.17 0l-.03-.1c.05.08-.15.14-.17.18-.06-.06.1-.08.1-.14l-.4.1c-.12.1.05.08 0 .18-.12.05-.23.14-.4.13l.07.07c-.2.13-.34.15-.52.1zm-200.87-55.8v-.04c-.01.01-.02.02 0 .04zm-.17-1.5h0z"/><path xmlns="http://www.w3.org/2000/svg" d="M359.5 422.54l-.06-.46-.13-.96c-.2-1.28-.44-2.58-1.17-4.12.18.38.01-.2.05-.18-.55-1.46-1.42-2.95-1.68-2.82l-.5-.85c-.07-.13-.02-.15-.05-.26-.1.03-.98-.63-1.77-1l.38.16c-.75-.43-1.52-.76-2.28-1.1l.35.42c-1.17-.6-.2-.4-1.37-.84l-.06.2c-1.66-.7-2.56-1.33-4.17-2.03-6.86-2.38-14.48-3.86-20.88-5.86l-.25-.22c-.07-.24-1.87-.15-2.07-.4l-.78-.1c-.2-.1-.64-.24-.25-.2-.7-.18-.72-.15-1.26-.22-.1-.05-.28-.1-.47-.16-.17-.04-.34-.07-.5-.1-.67-.01-1.36.2-1.94.56-1.02-2-1.87-4.1-2.34-6.36l-2.26-9.32-4.2-17.95-.03-.52c.07-.25-.92-3.08-.9-3.53l-.37-1.3c-.06-.37-.22-1.16-.04-.5-.28-1.22-.3-1.24-.55-2.1l-.23-1.32c-1.06-4.8-2.16-8.86-3.3-13.92-1.25-6.1-4.03-17.5-5.54-24.08-.54-2.32-1.1-4.7-1.4-7.2l-1.5-12.3c.04-.01.08-.03.13-.04l1.07-.34c.36-.1.85-.3 1.2-.56.77-.52 1.36-1.3 1.65-2.18.3-.9.27-1.9-.07-2.8l-.8-2.14c-2.15-5.7-4.32-11.46-6.64-16.72-.06-.18-.2-.5-.3-.75s-.23-.47-.24-.47l-3.94-9.76s-4.83-11.8-8.2-19c-1.67-3.6-2.96-6.03-2.9-5.32.01.22.16.76.47 1.67l-.7-1.56c-1.06-2.36-2.04-4.7-2.95-7 1.4 3.1 2.43 5.04 3.06 6.15.96 1.7 1.06 1.5.74.48-.3-1-1.02-2.82-1.6-4.4l-1.1-2.9-4.7-13.77-1.8-5.94.43-1.78.73-3 .38-1.62H192l.04.62.08 1.08.2 2.07.12-.24c.26 2.87.7 4.8 1.12 6.63.02.07.03.14.05.2l-.23.53c-4.7 10.3-6.17 12.93-10.87 23.68L175.6 258c-.87 2.46-2.94 6.56-4.03 9.43l-.6 1.04-.65 1.62c-.25.65-.4 1.33-.47 1.97l-.03-.08c-.03.96.12 1.97.42 2.8a6.93 6.93 0 0 0 .85 1.67l.8 1.1h.05l.4.55-.24-.24a170.41 170.41 0 0 1 4.85 6.5l-.01-.25c3.04 4.4 4.45 5.8 7.16 9.82l-.07-.03c3.93 4.7 5.52 7.94 9.54 12.8-.5-.6.14.32.07.3 1.75 2.3 3.6 4.8 3.86 4.66.9 1.24 1 1.44 1 1.56l.95 1.15c.4.5.85 1.1 1.28 1.67l-.5-.58.7.95.36.48a3.87 3.87 0 0 0 .53.54c.78.64 1.86.9 2.86.67-.4.01-.8-.05-1.16-.18.74.1 1.18-.01 1.43-.07.26-.06.36-.1.46-.1.1-.02.2-.05.4-.2.23-.15.53-.48.9-.9l-.17-.1c2.4-2.5 4-3.8 6.4-6.15l13.14-14.23 3.6-3.93-.03-.07 2.6-2.67 7.13 12.28.18.6c-.05.34 2.2 3.1 2.3 3.65l.9 1.33c.2.4.64 1.24.2.58.74 1.28.8 1.3 1.38 2.17l.7 1.43 1.06 1.86 1.1 1.85c.55.83 1.43 1.36 2.33 1.54a3.82 3.82 0 0 0 1.39.02 5.47 5.47 0 0 0 .65-.17l.48-.17 8.1-2.78c7.07-2.07 20.15-6.7 27.68-9.36 2.23-.82 4.57-1.6 6.96-2.38l1.92 13.24-.06-.2c.4 1.8.44 2.34.9 4.33.01.1.03.25.02.23.52 1.92 1.25 5.66 1.65 7.2l-.04.12.88 3.85-.3-1.44c.3.46.54 2.94 1.3 5.7.57 2.62 1.6 5.2 2.13 7.95.38 1.27-.4-1.1.1.8-.08.08-.27-.9-.23-.37.48 1.9.63 3.13 1.23 5.46l-.05.1c.84 3.02 1.25 5.78 1.85 7.8.8 3.13.28 2.16 1.2 5.4l.2 1.3c.3 1.4.36.98.67 2.54-.08-.08.4 1.98.14 1.08.73 3.54 1.8 7.1 2.74 11.78.36.98.83 3.33 1.1 4.06-.02.14 1.1 4.68.36 2.08-.06-.22-.15-.62-.13-.6l-.15-.3c.5 2.67 1.2 4.78 1.8 7.4-.16-.78-.4-1.8-.2-1.13l.56 2.43-.18-.5.82 3.62-.04-.52c.38 1.75.36 2.52 1.23 4.43.4.86-.54-1.68.2.14a30.83 30.83 0 0 0 1.29 2.93c-.05.08-.12.16-.17.24l-.24.4c-.15.27-.33.54-.5.8-.7 1.07-1.48 2.1-2.5 3.1-1.3 1.12-3.25 2.64-5.5 3.73-1.12.55-2.3 1.02-3.44 1.33a13.85 13.85 0 0 1-3.11.6c-1.28.12-2.62-.07-3.9-.54-1.3-.5-2.44-1.25-3.7-2.1-.35-.22-.6-.42-1.2-.64-.3-.1-.55-.12-.84-.12-.05 0-.1.01-.15.01-1.55-4.2-2.9-7.14-4.28-10.96-.01.2-.76-1.85-.67-1.3-1.66-3.96-2.62-7.37-3.5-8.7-.73-1.8-.77-2.18-1.13-3.13l.2.42-2.85-6.87c-.55-1.24-.78-1.37-1.7-3.63.36.7-.03-.2-.4-1.05.24.53.33.7-.1-.43a11.11 11.11 0 0 1-.3-.6c0-.01-.01-.06 0-.04-.6-1.4-.53-1.14-.26-.5-.02-.03-.01.03.06.24-.54-1.48-1.73-4.03-1.7-4.25l-4.75-10.6c-.12-.4.28.38.73 1.38l-1.08-2.46c.08-.01.65 1.4 1 2.16-1.15-3-2.73-6.02-4.1-9.5l-.37-.7-.08-.2c-.02.02-.4-.73-.62-1.24-.13-.52.16-.03-.53-1.74l-2.1-5.7c.28 1 .15.7 0 .27-.27-.9-.35-1.42-.6-2.1l.05-.1c-.05-.05-.2-.53-.38-1.07l-.46-1.58c-.06-.53.42 1.38.53 1.6-.9-3.6-.53-1.78-1.34-5.4-.5-1.92-.01.37-.3-.54-.4-1.7-.78-3.38-1.06-5.37l.02.64c-.47-2.53-.74-4.27-.9-5.97l-.92.35c.24 1.9.53 3.68.86 5.52.73 3.85 1.62 7.92 3.32 13.47a106.44 106.44 0 0 0 3.98 10.88l4.64 10.85 6.03 14c1.02 2.1 2.5 5.92 3.62 8.42l.33 1c.4.86.83 1.88 1.14 2.78l-.04-.05c.57 1.3 1.1 2.8 1.4 3.44l-.04-.05.63 1.6-.14-.26a190.28 190.28 0 0 1 2.66 6.75l.01-.2c1.65 4.5 2.45 6.07 3.9 10.14l-.04-.05.35.82a2 2 0 0 0-.82 1.07c-.06.15-.08.3-.1.47l-.05.33c-.03.2-.04.4-.06.58a21.84 21.84 0 0 0 .06 4.44 2.11 2.11 0 0 0 .1.66c.1 1.73.25 3.46.47 5.18 0 0 .2 1.56.6 3.6s1.03 4.47 1.72 6.38c.25.63.7 1.07 1.15 1.32a2.78 2.78 0 0 0 1.2.36c.68.02.92-.17.74-.26-.1-.08-.45-.12-.88-.35.28.08.58.12.86.1l3.7-.55c-9 2.27.28 1.25.28 1.25 5.56-.5 8.35-1.33 14.9-2.4 5.78-.78 7.35-.74 13.32-1.74 2.86-.4 5.9-.9 8.68-1.36 1.3-.4 3.66-.54 5.2-.95l.62.03c.53-.14 1.16-.27 1.7-.3l-.03.04c.8-.2 1.7-.3 2.1-.4l-.03.04.98-.16-.16.07c1.4-.3 2.84-.52 4.12-.67l-.13-.13a29.25 29.25 0 0 0 3.2-.46l1.37-.23.76-.1a7.42 7.42 0 0 0 .44-.05c.2-.03.42-.07.64-.14l-.04.05c1.12-.5 1.76-1.64 1.72-2.64.1-.18.05-.43.02-.6zM195.66 315l-1.22-.85-6.4 2.07-16.84 5.28-.52.07c-.25-.06-3 1.14-3.45 1.17l-1.27.46c-.37.1-1.14.3-.5.07l-2.06.7-1.3.33c-4.72 1.42-8.65 2.83-13.6 4.37-5.98 1.72-17.1 5.4-23.5 7.5-8 2.72-17.36 5.28-25.8 8.02-.08-.14-.16-.3-.26-.42-.14-.2-.32-.37-.5-.5l-.37-.3c-.23-.2-.47-.42-.7-.63-.92-.87-1.8-1.84-2.58-3.04-.86-1.5-2-3.68-2.66-6.1-.33-1.2-.58-2.44-.68-3.62a13.48 13.48 0 0 1-.02-3.17c.12-1.27.55-2.56 1.25-3.74s1.68-2.17 2.76-3.25c.28-.3.53-.52.85-1.06.07-.15.13-.3.17-.43 7.1-3.18 11.65-5.5 20.92-9.8l21.2-9.62 13.83-6.3c1.6-.8 17.62-7.62 21.38-10.7l-.7-1c-4.77 3.22-16.52 8.63-17.3 8.95-1.24.55-1.38.78-3.62 1.7.7-.37-.2.03-1.05.4.53-.24.7-.33-.43.1-.15.1-.38.2-.6.3-.01 0-.06.01-.03 0-1.38.63-1.13.54-.48.27-.02.02.04.01.23-.06-1.47.55-4 1.78-4.22 1.77-4.14 1.9-7.04 3.4-10.45 5.04-.4.13.38-.28 1.36-.77l-2.43 1.14c-.01-.08 1.38-.68 2.13-1.05-2.96 1.23-5.94 2.88-9.4 4.34l-.68.38-.2.08c.02.02-.72.42-1.22.66-.52.16-.04-.16-1.72.62-1.36.55-3.77 1.77-5.5 2.62.94-.42.66-.25.26-.04-.84.4-1.35.55-2 .88l-.1-.04c-.1.12-2.22 1.1-2.5 1.27-.5.16 1.28-.66 1.48-.8l-5.07 2.34c-1.77.9.37-.07-.46.4-1.6.75-3.1 1.53-4.96 2.32l.6-.2c-2.97 1.43-4.76 2.25-6.8 3.1l-1.4.7c0-.07 0-.15-.02-.23-.1-.62-.48-1.2-1.05-1.5a1.41 1.41 0 0 0-.44-.18l-.32-.1c-.2-.07-.38-.1-.56-.17a25 25 0 0 0-4.38-.76c-.18-.05-.67-.05-.67-.03a64.31 64.31 0 0 0-5.18-.48s-1.57-.1-3.64-.07c-2.08.02-4.58.2-6.6.52-.66.13-1.18.5-1.5.9s-.5.78-.57 1.1c-.15.66 0 .94.12.78.1-.1.2-.42.5-.8-.13.26-.22.55-.25.82l-.14 3.73c-.58-9.28-1.28.04-1.28.04-.52 5.56-.22 8.46-.37 15.1-.3 5.83-.62 7.37-.73 13.4-.13 2.88-.18 5.96-.26 8.78.16 1.34-.14 3.7-.02 5.3l-.14.6c.04.55.05 1.2-.03 1.73l-.03-.1c.06.82-.03 1.73 0 2.14l-.03-.03-.02 1-.04-.18a43.63 43.63 0 0 1-.1 4.18l.15-.1c-.13 1.38-.14 2.32-.14 3.23l-.02 1.4c-.02.24-.02.5-.04.77-.01.14-.03.3-.03.44a3.61 3.61 0 0 0 .02.65l-.05-.05c.28 1.2 1.3 2.03 2.27 2.17a4.2 4.2 0 0 0 .66.05l.47.02.97.05c1.3.04 2.62.05 4.26-.4-.4.1.2.05.16.1 1.54-.27 3.17-.86 3.1-1.14l.93-.34c.14-.04.15.01.27 0-.01-.1.8-.85 1.32-1.56l-.23.35c.56-.66 1.02-1.35 1.5-2.04l-.48.27c.8-1.04.43-.1 1.08-1.2l-.17-.1c1-1.5 1.78-2.27 2.77-3.72 3.6-6.3 6.45-13.52 9.6-19.45l.25-.2c.25-.02.5-1.8.78-1.96l.24-.75c.13-.18.35-.58.24-.2.3-.65.3-.7.45-1.2a2.27 2.27 0 0 0 .24-.43c.07-.15.13-.32.2-.5.1-.4.08-.84.02-1.26.47-.15.95-.3 1.4-.47-.1.05-.14.1-.77.3 1.98-.64 4.68-1.55 4.86-1.5l14.37-4.7-.2.1c1.7-.65 2.24-.73 4.15-1.4.1-.02.25-.06.23-.05 1.85-.7 5.5-1.76 7-2.3l.12.03 3.75-1.2-1.4.43c.44-.33 2.88-.8 5.57-1.77 2.55-.8 5.06-2 7.73-2.76 1.24-.5-1.07.5.8-.18.1.07-.87.34-.35.25 1.85-.63 3.07-.86 5.33-1.65l.1.04c2.94-1.07 5.66-1.7 7.6-2.43 3.06-1.03 2.13-.44 5.3-1.6l1.27-.3c1.38-.42.94-.43 2.47-.86-.07.1 1.94-.55 1.07-.22 3.47-1 6.95-2.35 11.53-3.6.95-.44 3.25-1.08 3.96-1.4.14.01 4.57-1.43 2.04-.52-.22.08-.6.2-.6.17l-.28.16c2.62-.68 4.67-1.55 7.23-2.34-.76.22-1.77.54-1.1.28l2.38-.74-.48.2 1.02-.3z"/><g xmlns="http://www.w3.org/2000/svg" fill="#fff"><path d="M71.9 322.4c-.13 1.04-.16 1.98-.16 3.54l.1-.3c-.1.95-.06 1.76-.07 2.6.07.45.12-.66.16.28l-.08 2.64c-.05-.1 0-1.04-.08-.8.04.17-.01 1.5.1 1.32l-.1.03c.02.34-.06.6-.08 1.03.01.22.05.38.08-.1l-.03 2.9c-.03.88-.1.6-.2.86 0 .27.04.67.06.66v.1l.05.38c-.2 1.77.01 3.4-.17 4.9 0-.4.06-1.1-.02-1.13l-.02 1.27c-.01-.52-.04-.94-.1-.74l-.02 5.5c-.1.08-.08 1.42-.18 2.16.02-.1.04-.13.05-.1.02-.34.05-.45.04.26 0-.01-.01.01-.02.02.01.1.01.24.03.32-.06.56-.08.48-.1.2-.02.43-.02.9-.07.52-.08 1.14.07 1.25.08 1.9l-.1 3.5-.01-.22c-.03.48-.14.65-.15 1.56.32.75-.08 2.4-.04 4.43.12-.26.04.78.12.7-.17 1.95-.03 3.5-.2 5.7l-.01-.1c-.1.6-.1 2.06-.04 2.56-.07-.3-.13.76-.2.36.1.44-.02 2.37-.02 2.37-.12.36-.07 1.8-.18 2.68l.1 1.17-.08-.42c-.02.6-.08.73-.1.47-.02.27-.01.43.01.83-.03-.04-.04-.12-.06-.18-.05.67.25.78.14.4.2.52.3.57.36.7.07.1.13.27.6.3.1-.03.18-.1.27-.14l-.1.05h.17c1.2-.05.46.2 1.84.04l.03.08c.07-.01.13-.02.14-.04-.01-.03-.03-.04-.06-.07l.34-3.72c.02-.9-.08.34-.12-.1-.06-.98.1-1.27.16-2.13l-.1.23.13-1.76.05.25.07-1.18c-.04-.34-.05.17-.1.54.1-1.27-.08-2.33.12-3.6l.07.16c-.02-.02-.03.18-.03.3.05 1.28.12-.94.18-1-.08-.37.06-1.5-.04-2 .28-2.24.13-4 .3-5.7.04.44.08-.56.14-.5.08-.75-.06-.56-.01-1.25l.13-.6c-.06-1.6.2-1.08.2-2.6-.08-1 .22-2.3.15-3.78l.08-.04c0-1.14.16-1.7.16-2.64.1-.23.03.23.12.2-.02-.94.14.25.1-.38.16-1.3-.2-2.63-.1-3.9-.05-1.36.3-2.5.14-2.77l-.05.7.08-1.86.07-.05.1-3.5c0 .01.01-.06.04-.1-.01-.96.1-1.2.03-2.07l.03.1c-.1-1.52.12-4.8.2-7.15.1-.07.13-1.42.16-2.4-.02.3.04.34.05.4-.05-1.36.26-2.83.2-4.25l.01.05c.08-.54.01-2.18.2-2.43l.01-2.4.03-.66.01-.35v-.13c.06-.27-.06-.2-.46-.22l.1-.04-2.5-.08c-.6-.03-1.1.3-1.4.62-.25.25-.4.47-.5.67a2.02 2.02 0 0 0-.17.65l-.1 3.05c-.04.73-.02 1.56.01 2.55zm15.93-6.34l-.03-.01c-.13.24-.18.38-.1.6-.18-.02-.08.2-.15.24l-.01-.01c.08.2-.2.27-.14.45-.01-.01-.05-.02-.04-.06-.01.1-.02.26-.13.24-.07.26-.23.58-.15.8h-.02c.07.13-.03.12-.02.24-.01 0-.02.01-.03 0 .06.14-.1.3-.1.38h-.06l-.08.2.04-.06c.15.1-.17.1-.13.28-.1.12.2.43.05.52.04.1-.1-.12-.1 0-.1-.04-.03-.08-.1-.1-.01.1-.17.1-.17.24l-.06-.03c.03.2-.25.2-.2.37-.04.17-.24-.02-.22.2h-.12c-.06.05.07.1-.02.16-.05-.05-.1.06-.12-.02-.18.1-.1.4-.4.46.06.12-.07.16-.03.25-.04-.03-.17.18-.16-.01.01-.01.01-.03.03-.01l-.04-.06c-.2.01-.1.22-.22.3.05-.01.08-.05.1.01l-.1.08-.02-.07-.16.1.07.04c-.1.03-.2-.04-.2.1 0 .07.14.03.08.1-.13.03-.32.08-.46.15.06.06.03.08 0 .13l-.04-.06c-.07.2-.14-.1-.23.06l-.02-.05.04.15c-.04.2-.15-.1-.18.17.05-.05.1.12.03.14v-.08c-.03.03-.03.07-.06.07.01-.04-.05-.1-.1-.05l-.01-.1-.04.17c-.12-.02-.22.14-.3.07 0 0-.2.05-.2.18 0-.08-.12-.05-.1-.14-.01.1-.13.22-.22.18l.01-.01c-.25.02-.32.3-.56.27.05.08-.08.08-.02.16-.16.2-.47-.06-.4.3-.1.05-.14-.03-.2-.02v-.03c-.17.1-.23.1-.36.16-.06.05-.01.2-.15.2.02-.07-.03-.04-.07-.03.02-.02.03-.04-.05-.07 0 .02-.01.03-.02.05 0-.01 0-.01-.01-.02-.07.05-.05.06-.01.06 0 .01.01.02.02.03-.1-.05-.22.08-.26-.02-.22.1-.36.25-.54.35-.04-.05-.01-.1.04-.14l-.13.06c-.02-.08.07-.07.1-.1-.2-.08-.3.22-.53.16l-.03.07h0c.01.03-.02.08-.05.1-.04-.06-.04-.16-.13-.13-.1-.04-.2.08-.3.15.05 0 .05.04.04.07-.05.02-.1-.05-.12-.01l-.02-.1c.04.08-.1.12-.1.17-.04-.06.06-.07.06-.13-.2.05-.1.02-.3.08-.08.1.04.08.01.18-.1.04-.17.12-.3.1l.05.08c-.17.1-.27.1-.4.05-.6.46-.65.68-.54.82.13.13.4.15.4.15.57.1.8-.2 1.4-.4.56-.1.74.03 1.3-.2.27-.07.55-.2.8-.3.08-.17.34-.12.46-.27l.08.05c.03-.05.1-.1.15-.1v.02c.06-.08.15-.1.18-.12v.02l.1-.04v.03a.79.79 0 0 1 .37-.2l-.05-.08c.3-.02.3-.22.58-.23v.02c.18-.34.5-.08.7-.43-.03.04.03.03.04.05.1-.1.26-.18.17-.34.1-.05.1-.01.15.05-.04-.06.03-.14.1-.2l-.01.05.2-.15-.12-.1c.13-.03.12.13.2.03l-.07-.1c.15-.08.34 0 .54-.04.64-.42.94-1.2 1.5-1.6l.1.03c.1.07-.04-.26.06-.2v-.1c.03 0 .08-.03.08.02.04-.06.03-.06.03-.14l.1-.02c.2-.2.2-.5.38-.73.32-.23.5-.9.55-1.28.04-.55.73-.96.7-1.55.02-.01 0-.07-.01-.07l.16-.47c0-.04.54-2.36-.88-.84zm4.57 32.12h0l-.03.05z"/><path d="M95.95 348.8c-.25-.2-.24-.4-.56-.52-.13-.1-.3-.16-.44-.22-.13.07-.18-.1-.3-.07l.01-.08c-.05.02-.1.01-.1-.03l.02-.02c-.07.02-.1-.03-.12-.02l.02-.02-.05-.02h.02c-.1 0-.17-.03-.2-.1l-.05.08c-.08-.16-.22-.05-.28-.22l.02-.02c-.27.1-.15-.28-.42-.2.04-.01.01-.05.03-.06-.08-.02-.17-.06-.26.08-.05-.03-.01-.07.02-.13-.04.07-.1.06-.14.04l.04-.01-.12-.05-.06.14c-.04-.07.07-.15.01-.16l-.06.1c-.07-.07-.03-.26-.06-.38-.32-.26-.84-.24-1.05-.6l.03-.1c.07-.1-.2.1-.14 0l-.07.02c0-.02-.01-.06.03-.07-.03-.02-.04-.01-.1.01l.01-.1c-.1-.13-.3-.1-.42-.2-.08-.25-.48-.33-.72-.37-.36 0-.38-.63-.77-.6 0-.02-.04-.01-.05.01l-.23-.17s-1.14-.8-.83.68v.02c.1.15.17.2.34.14-.08.16.1.08.1.16l-.01.01c.15-.06.1.2.24.15-.01.01-.04.05-.06.04.07.02.17.03.12.12.15.06.3.23.5.14l-.02.02c.1-.06.07.03.16.02-.01.01 0 .02-.01.03.1-.06.17.1.24.07l-.03.05.12.05-.04-.04c.12-.15.02.15.16.1.06.07.35-.23.38-.1.08-.05-.1.1-.01.08-.05.08-.06.03-.1.1.07 0 .04.14.13.12l-.04.07c.16-.06.1.18.23.1.12 0-.06.22.1.16l-.01.1c.04.04.1-.1.1-.02-.03.05.03.08-.03.12.04.14.28.01.32.24.1-.1.12.02.2-.05-.02.05.13.1-.01.14-.01 0-.02 0-.01-.02l-.04.06c-.01.16.18.02.23.1-.01-.04-.04-.05 0-.08l.06.05-.05.04.08.1.03-.07c.02.07-.02.2.1.13.06-.03.01-.12.07-.1.04.08.1.22.17.3.04-.08.06-.06.1-.07l-.04.07c.15-.03-.06.16.07.14l.07-.08c.16-.08-.04.16.16.05-.05-.01.07-.15.1-.1l-.05.05c.03 0 .06-.02.07.01-.03.02-.06.1-.02.1l-.07.06.13-.07c.01.1.14.07.1.17 0 0 .08.1.17.03-.06.04-.02.1-.07.16.07-.05.2-.05.17.04h-.01c.08.15.28.04.34.2.04-.08.08 0 .12-.1.17-.02.1.33.32.07.06.02.02.1.04.14l-.02.01c.1.04.15.05.22.1.05-.01.14-.14.2-.06-.06.04-.02.05 0 .06-.02 0-.04.01-.03.07.02-.02.02-.02.04-.03h-.01c.05 0 .06-.01.04-.04.01-.01.02-.02.02-.04 0 .1.12.07.07.17.14.06.3.03.4.05-.02.06-.07.08-.1.08l.1.03c-.04.07-.07.01-.1.01.02.16.25.01.3.17l.06-.04c.02-.03.07-.06.1-.05-.02.07-.1.14-.04.16.01.08.13.05.2.04-.02-.02.01-.06.03-.06.03.01.01.08.04.07l-.05.08c.04-.08.1-.04.15-.06-.02.07-.08.03-.1.07.1.06.05.02.16.08.1-.02.04-.08.1-.14.06.01.15-.01.16.07l.02-.08c.13 0 .17.04.18.16 1.04-.15.64-.7.64-.7-.18-.32-.45-.2-.8-.34zm-2.92 6.45c-.25-.2-.24-.4-.56-.52-.13-.1-.3-.16-.44-.22-.13.07-.18-.1-.3-.07l.01-.08c-.05.02-.1.01-.1-.03l.02-.02c-.07.02-.1-.03-.12-.02l.02-.02-.05-.02.02-.02c-.1 0-.17-.03-.2-.1l-.05.08c-.08-.16-.22-.05-.28-.22l.02-.02c-.27.1-.15-.28-.42-.2.04-.01.01-.05.03-.06-.08-.02-.17-.06-.26.08-.05-.03-.01-.07.02-.13-.04.07-.1.06-.14.04h.04l-.12-.05-.06.14c-.04-.07.07-.15.01-.16l-.06.1c-.07-.07-.03-.26-.06-.38-.32-.26-.84-.24-1.05-.6l.03-.1c.07-.1-.2.1-.14 0l-.07.02c0-.02-.01-.06.03-.07-.03-.02-.04-.01-.1.01v-.1c-.1-.13-.3-.1-.42-.2-.08-.25-.48-.33-.72-.37-.36 0-.38-.63-.77-.6 0-.02-.04-.01-.05.01l-.23-.17s-1.14-.8-.83.68l-.02.02c.1.15.17.2.34.14-.08.16.1.08.1.16v.01c.15-.06.1.2.24.15-.01.01-.04.05-.06.04.07.02.17.03.12.12.15.06.3.23.5.14l-.02.02c.1-.06.07.03.16.02.1-.04.17.1.24.1l-.03.05.12.05-.04-.04c.12-.15.02.15.16.1.06.07.35-.23.38-.1.08-.05-.1.1-.01.08-.05.08-.06.03-.1.1.07 0 .04.14.13.12l-.04.07c.16-.06.1.18.23.1.12 0-.06.22.1.16l-.01.1c.04.04.1-.1.1-.02-.03.05.03.08-.03.12.04.14.28.01.32.24.1-.1.12.02.2-.05-.02.05.13.1-.01.14-.01 0-.02 0-.01-.02l-.04.06c-.01.16.18.02.23.1-.01-.04-.04-.05 0-.08l.06.05-.05.04.08.1.03-.07c.02.07-.02.2.1.13.06-.03.01-.12.07-.1.04.08.1.22.17.3.04-.08.06-.06.1-.07l-.04.07c.15-.03-.06.16.07.14l.07-.08c.16-.08-.04.16.16.05-.05-.01.07-.15.1-.1l-.05.05c.03 0 .06-.02.07.01-.03.02-.06.1-.02.1l-.07.06.13-.07c.01.1.14.07.1.17 0 0 .08.1.17.03-.06.04-.02.1-.07.16.07-.05.2-.05.17.04h-.01c.08.15.28.04.34.2.04-.08.08 0 .12-.1.17-.02.1.33.32.07.06.02.02.1.04.14l-.02.01c.1.04.15.05.22.1.05-.01.14-.14.2-.06-.06.04-.02.05 0 .06-.02 0-.04.01-.03.07.02-.02.02-.02.04-.03v.01c.05 0 .06-.01.04-.04.01-.01.02-.02.02-.04 0 .1.12.07.07.17.14.06.3.03.4.05-.02.06-.07.08-.1.08l.1.03c-.04.07-.07.01-.1.01.02.16.25.01.3.17l.06-.04v.01c.02-.03.07-.06.1-.05-.02.07-.1.14-.04.16.01.08.13.05.2.04-.02-.02.01-.06.03-.06.03.01.01.08.04.07l-.05.08c.04-.08.1-.04.15-.06-.02.07-.08.03-.1.07.1.06.05.02.16.08.1-.02.04-.08.1-.14.06.01.15-.01.16.07l.02-.08c.13 0 .17.04.18.16 1.04-.15.64-.7.64-.7-.2-.3-.46-.18-.8-.33zm93.1-87.28c.67-1.02.97-1.2 1.57-2.33l.9-1.6c.04-.3.4-.66.48-1l.13-.07c.03-.12.08-.24.17-.32v.02c.04-.17.17-.32.2-.4v.02l.1-.18v.05c.1-.28.26-.55.42-.77l-.1-.03c.38-.44.34-.72.7-1.1l.01.02c.14-.68.67-.8.84-1.5-.02.1.06-.01.07.01.14-.28.3-.57.16-.67.12-.2.14-.13.2-.12-.06-.04.01-.22.1-.38l-.02.08.24-.45-.17.01c.17-.2.18.03.3-.2l-.1-.06c.2-.3.48-.4.74-.67.82-1.26 1.4-2.8 2.3-3.9l.1-.01c.12.04.04-.43.17-.4l.03-.17c.04-.03.1-.1.1-.01.08-.13.07-.14.1-.25l.15-.1c.36-.48.5-1 .84-1.5.53-.56 1.13-1.84 1.48-2.58.43-1.08 1.56-1.95 1.97-3.07.04-.02.05-.13.04-.14l.57-.9s2.73-4.42-.22-1.6l-.01-.04c-.36.47-.57.77-.66 1.2-.18-.03-.26.4-.38.5v-.02c-.07.38-.48.57-.55.93 0-.02-.04-.05 0-.12-.1.23-.26.54-.35.5-.3.53-.76 1.22-.82 1.63l-.01-.04c-.02.24-.13.25-.2.5-.02 0-.03.02-.04.01-.03.26-.35.6-.4.8l-.06-.02-.23.4.1-.14c.13.15-.28.25-.36.6-.2.26-.01.76-.26 1-.01.18-.05-.2-.1.05-.1-.04.01-.13-.1-.1-.08.22-.28.28-.38.56l-.07-.03c-.08.4-.45.56-.47.84-.15.36-.32.1-.4.53l-.17.08c-.1.14.04.17-.1.3-.05-.04-.17.18-.16.05-.3.32-.34.83-.78 1.23.04.17-.17.38-.14.5-.05-.01-.3.5-.24.15.01-.03.03-.07.05-.06l-.04-.07c-.3.2-.24.55-.43.8.07-.07.13-.18.13-.08l-.16.25-.02-.1-.26.36.1-.01c-.15.17-.3.17-.33.43-.01.13.2-.12.1.1-.2.22-.5.56-.7.87.1.01.04.1 0 .2l-.07-.03c-.12.4-.22.04-.35.42l-.03-.06.08.17c-.06.38-.23.08-.26.53.07-.14.18.02.05.17l-.04-.08c-.04.1-.03.14-.08.2 0-.07-.07-.08-.14.06l-.02-.14-.04.32c-.18.16-.3.5-.42.54 0 0-.3.4-.26.55-.01-.12-.17.1-.2-.01 0 .15-.14.5-.3.6l.01-.03c-.36.43-.4.87-.74 1.25.1.03-.1.23.04.23-.17.5-.68.7-.48 1.03-.1.2-.2.2-.3.3v-.06l-.44.78c-.06.16.07.26-.12.5-.01-.1-.06-.01-.1.1.03-.06.02-.1-.1.01.01.03 0 .06-.01.1h-.02c-.08.17-.04.15.01.08.01.01.02.01.05 0-.17.12-.27.45-.37.42-.26.48-.37.88-.57 1.3-.07.01-.06-.1-.01-.23l-.15.3c-.07-.04.06-.18.1-.28-.3.26-.3.75-.64 1.07v.1.02c.03.02.02.13-.01.2-.1.02-.14-.1-.25.1-.15.12-.23.45-.32.67.07-.1.1-.05.08.01-.06.1-.15.12-.17.2l-.1-.04c.1.01-.07.3-.06.36-.1.02.04-.18.01-.23l-.34.58c-.06.24.1.01.1.15-.1.2-.14.4-.32.58l.1-.02c-.15.37-.28.57-.5.76-.95 2.9.48 1.02.48 1.02.73-.9.83-1.53 1.5-2.76zm39.6 11.46l-.07-.2c-.01.01 0 .06.07.2zM200.8 235.4c-.01-.01-.02-.02-.03-.04.02.03.03.04.03.04zm22.12 36.7h.01l.03.04z"/><path d="M227.87 281l-2.9-5.43-2.03-3.48c-.4-.47-.84-1.47-1.3-2.05l-.08-.28c-.16-.2-.32-.44-.4-.68h.03c-.23-.3-.42-.68-.53-.83h.03l-.23-.4.06.05c-.38-.54-.7-1.12-1-1.64l-.05.1c-.55-1.15-.94-1.46-1.4-2.5h.03c-.92-1.14-1-2.05-1.95-3.23.12.15 0-.1.02-.1-.37-.58-.75-1.2-.9-1.13-.25-.43-.16-.38-.14-.47-.06.04-.3-.32-.5-.65l.12.14-.6-.95-.01.26c-.27-.53.07-.22-.25-.7l-.1.07c-.4-.72-.5-1.22-.82-1.95l-5.08-8.5.01-.16c.08-.1-.58-.64-.54-.8l-.22-.28c-.03-.1-.1-.3 0-.15-.15-.3-.18-.3-.32-.48l-.1-.35c-.57-1.17-1.23-2.06-1.84-3.3-.63-1.52-2.15-4.2-3-5.78-1.27-2.17-2.05-5.02-3.3-7.27a.73.73 0 0 0-.16-.26l-.93-2.15-1.88-4.2c-.75-1.6-1.28-2.14-.13 2.08l-.05-.04c.43 1.22.74 1.97 1.22 2.73-.1.2.4.98.48 1.28v-.02c.44.67.56 1.53.98 2.17-.02-.02-.07-.02-.15-.17.25.5.6 1.17.52 1.25l1.83 3.57-.05-.04c.3.4.28.56.57 1.02 0 .03.01.07 0 .07.33.42.7 1.37.92 1.73l-.05.05.48.93-.16-.35c.22.04.25.76.7 1.38.3.64 1 1.1 1.25 1.8.24.27-.27-.2.04.22-.08.06-.17-.2-.17-.03.28.43.3.8.66 1.33l-.05.06c.5.67.65 1.43 1.03 1.85.46.72.08.6.64 1.32l.08.35c.17.34.24.18.4.57-.07.01.22.5.05.3.4.88 1.07 1.63 1.58 2.8.25.17.5.76.7.88-.03.06.64 1.1.18.55-.04-.05-.1-.14-.07-.15l-.1-.04c.25.7.73 1.1 1.08 1.7-.1-.2-.24-.43-.1-.3l.33.57-.12-.1.48.86v-.16c.2.43.2.64.56 1.05.18.18-.15-.44.14-.02l1.1 2.16c.03-.1.14.08.28.27l-.05.06c.53.7.02.36.53 1.06l-.08-.04.25.12c.52.6.08.44.7 1.08-.18-.3.06-.22.25.16l-.12-.06c.13.2.2.25.26.4-.1-.1-.13-.01.06.28l-.2-.15.44.5c.2.47.67 1.1.68 1.34 0 0 .5.95.72 1.1-.17-.15.1.37-.05.27.2.2.68.88.77 1.2l-.04-.05c.54 1.1 1.15 1.75 1.6 2.75.05-.1.3.44.32.26.66.93.83 1.9 1.33 2.1.27.44.23.57.35.8l-.08-.1 1 1.7c.2.3.37.26.66.84-.16-.15-.02.07.1.28-.08-.13-.13-.16-.01.14.04.03.08.08.12.13 0 0 0 .02-.01.02.22.34.2.27.12.1.01 0 .02-.02 0-.08.13.4.58 1 .5 1.1l1.67 2.58c.01.13-.15-.05-.3-.3l.37.6c-.07.03-.24-.33-.36-.5.3.8.97 1.45 1.36 2.38l.16.15.02.06c.03-.02.18.15.26.27.01.16-.15.07.1.5.13.37.57.94.85 1.37-.12-.24-.05-.2.03-.1.12.2.13.37.25.52l-.07.07c.03-.13.4.5.48.57.01.16-.24-.3-.32-.33l.74 1.28c.32.42.03-.13.23.05.24.4.52.76.73 1.25l-.01-.2c.48.73.73 1.2.94 1.74 3.77 5.33 1.48.74 1.48.74-1.1-2.36-1.95-3.4-3.5-6z"/><path d="M233.3 207.8c-.08.53-.1.87-.01 1.26-.18.05-.06.47-.13.6l-.01-.01c.1.37-.2.7-.13 1.05-.01-.01-.06-.03-.05-.1-.01.25-.02.6-.13.6-.07.6-.27 1.38-.2 1.8l-.02-.03c.06.23-.05.28-.05.52-.02.01-.03.03-.03.02.05.25-.14.67-.15.87h-.07l-.1.46.06-.17c.16.1-.2.3-.18.67-.1.3.18.73 0 1.02.04.18-.1-.18-.1.07-.1-.02-.03-.12-.12-.1-.03.24-.2.33-.24.62l-.07-.01c.01.4-.3.64-.28.9-.07.38-.3.17-.3.6l-.15.1c-.07.16.07.16-.04.32-.06-.03-.14.2-.15.08-.25.36-.18.87-.56 1.32.07.16-.1.4-.06.52-.06-.01-.23.52-.2.18 0-.03.02-.07.04-.06l-.05-.06c-.25.24-.16.57-.32.84.06-.07.1-.2.12-.1l-.14.26-.03-.08-.22.38.1-.02c-.13.18-.28.18-.3.45.01.13.18-.14.1.08-.16.24-.43.58-.65.87.1.01.04.1 0 .2l-.07-.03c-.1.38-.2.04-.34.4l-.03-.06.08.17c-.05.38-.23.08-.25.52.06-.14.18.03.04.17l-.03-.08c-.05.1-.04.14-.1.2 0-.07-.07-.08-.15.05l-.02-.13-.06.3c-.2.14-.32.48-.45.5 0 0-.3.36-.3.5.01-.12-.18.07-.2-.04-.02.14-.2.46-.36.52l.01-.03c-.4.35-.5.8-.9 1.06.08.04-.13.2-.01.23-.28.44-.8.5-.7.87-.16.17-.26.12-.36.2l.03-.05-.63.6c-.1.13-.01.28-.26.42.03-.1-.05-.02-.14.04.05-.05.05-.08-.1-.03 0 .03-.02.06-.04.08-.14.12-.1.1-.03.07 0 .01.02.02.05.01-.2.05-.4.32-.5.25l-1 .95c-.07-.02-.01-.12.08-.2l-.25.2c-.04-.07.12-.14.2-.2-.38.1-.57.55-1.02.67l-.05.1h-.03c.02.03-.04.12-.1.16-.1-.03-.08-.14-.26-.02-.18.03-.4.27-.6.4.1-.05.1 0 .06.05-.1.05-.18.02-.24.1l-.05-.08c.08.06-.2.22-.23.27-.1-.03.13-.13.12-.2l-.6.3c-.18.17.08.06.01.2-.18.1-.34.26-.58.3l.1.05c-.34.2-.56.3-.84.32-1.24.84-1.4 1.06-1.14 1.16.28.08.87-.06.87-.06 1.2-.25 1.7-.73 2.92-1.44l1.3-.62c.37-.17.73-.37 1.24-.78.53-.33 1.02-.8 1.48-1.17.15-.27.6-.53.8-.83l.15-.03c.06-.1.15-.2.26-.26l.01.02c.1-.15.26-.27.3-.35l.01.02.14-.16v.05c.17-.26.4-.5.6-.67l-.08-.04c.5-.35.47-.66.9-.98v.02c.26-.65.8-.72 1.03-1.43-.03.1.06 0 .07.01.17-.28.35-.56.2-.66.14-.2.15-.12.23-.1-.06-.04.03-.22.1-.38l-.02.1.24-.46h-.17c.17-.2.18.03.3-.2l-.1-.06c.2-.3.48-.42.75-.7.37-.67.66-1.42.95-2.14.27-.73.54-1.43.9-2.05l.1-.03c.13.02-.03-.43.1-.44v-.18c.04-.04.1-.12.1-.03.06-.14.04-.15.04-.27l.13-.13c.27-.54.28-1.08.5-1.67.4-.67.64-2.1.73-2.92.08-1.16.84-2.4.77-3.62a.19.19 0 0 0-.02-.14l.13-1.08.04-1.26h-1z"/><path d="M251.17 295.52c-.82-1.52-1.36-2.45-2.1-3.4.05-.25-.7-1.22-.87-1.6l.03.03c-.65-.83-1.02-1.9-1.64-2.72.03.03.08.02.2.22-.4-.62-.95-1.47-.9-1.56l-2.87-4.5.06.05c-.42-.5-.44-.7-.86-1.3l-.02-.08c-.45-.55-1.06-1.74-1.4-2.2l.04-.07-.73-1.2.25.45c-.25-.06-.44-.96-1.06-1.77-.46-.82-1.3-1.45-1.74-2.34-.3-.36.33.28-.08-.28.07-.07.22.25.2.06-.4-.57-.5-1.02-.98-1.72l.05-.07c-.68-.88-.98-1.84-1.47-2.4-.63-.95-.2-.77-.93-1.72l-.15-.45c-.24-.45-.3-.25-.54-.76.07 0-.32-.64-.1-.4-.56-1.15-1.44-2.16-2.14-3.7-.3-.25-.66-1.02-.87-1.2.02-.07-.85-1.47-.27-.7.05.07.12.2.1.2l.12.06c-.36-.9-.94-1.47-1.4-2.3.12.26.3.58.15.38l-.44-.77.15.13-.63-1.15.02.2c-.3-.58-.3-.84-.74-1.4-.22-.25.2.58-.14 0l-1.48-2.9c-.02.13-.17-.13-.33-.38l.05-.07c-.66-.96-.07-.45-.7-1.4l.1.06-.3-.2c-.64-.83-.15-.56-.88-1.47.23.4-.04.27-.28-.24l.13.1c-.16-.26-.24-.34-.33-.53.12.14.14.03-.1-.36l.23.22-.54-.7c-.26-.62-.86-1.5-.9-1.8 0 0-.63-1.3-.88-1.53.2.22-.15-.5.03-.33-.24-.3-.8-1.23-.94-1.66l.05.07-1.88-3.8c-.05.1-.34-.62-.36-.4-.76-1.3-.93-2.6-1.47-2.95-.3-.62-.26-.78-.4-1.1l.08.14-1.03-2.4c-.2-.43-.4-.44-.67-1.24.16.23.02-.1-.1-.38.1.2.13.24.01-.17-.04-.05-.1-.13-.13-.2 0-.01 0-.02.01-.02-.22-.5-.2-.4-.12-.16-.01-.01-.02.02-.01.1-.12-.55-.54-1.45-.46-1.55l-1.53-3.8c.01-.16.15.12.3.48l-.32-.9c.08-.02.22.5.32.77-.24-1.1-.87-2.16-1.1-3.47l-.14-.24v-.08c-.03.01-.16-.26-.23-.44.01-.2.16-.03-.03-.66-.07-.52-.4-1.4-.62-2.06.08.36.01.25-.05.1-.1-.32-.07-.52-.16-.75l.08-.05c-.06.15-.3-.8-.35-.92.03-.2.17.48.24.55l-.45-1.9c-.22-.67-.06.14-.2-.17-.14-.6-.32-1.18-.4-1.9l-.04.24c-.28-1.13-.37-1.82-.4-2.6l-.57-2.7h-.62l.04 1c.23 3.48.8 5.2 1.84 9.16l.54 2.23.46 1.75c.28 1.12.63 2.24 1.26 4l1.93 5.06c.43.72.86 2.1 1.33 2.98l.1.37c.17.3.35.64.46.97h-.03c.25.44.46.97.58 1.18l-.03-.01.26.55-.07-.08 1.12 2.32.05-.1c.66 1.57 1.08 2.05 1.67 3.48l-.03-.01c1.1 1.6 1.3 2.78 2.42 4.44-.14-.2.01.1-.02.1.47.8.96 1.64 1.1 1.57.32.6.22.5.2.6.06-.04.37.45.63.9l-.14-.2.76 1.3-.02-.32c.36.7-.05.26.35.9l.1-.07c.52.96.68 1.6 1.14 2.58 2.15 3.85 4.8 7.8 6.7 11.43v.2c-.07.13.74.88.72 1.07l.3.38c.05.13.17.38.03.2.22.38.24.38.44.63l.17.45c.83 1.53 1.72 2.72 2.63 4.3 1 1.98 3.24 5.45 4.54 7.46 1.9 2.78 3.46 6.4 5.4 9.22a1.23 1.23 0 0 0 .24.32l1.6 2.7 3.23 5.25c.64 1 1.1 1.66 1.15 1.4.03-.24-.38-1.4-1.63-4.04l.01.1zm8 17.26l-.3-.04c.88-.2 1.57-.54 2.3-.8.36-.26-.64.04.16-.36l2.35-.8c-.07.12-.9.38-.65.4.12-.1 1.3-.5 1.1-.6l.1.14c.3-.15.55-.1.94-.25.18-.1.3-.2-.15-.08.8-.33 1.88-.87 2.53-.97.78-.27.6-.04.85-.01.23-.1.56-.3.54-.34l.1-.01.3-.2c1.64-.34 2.94-1.22 4.36-1.46-.34.14-1 .3-.97.43l1.12-.4c-.45.2-.8.4-.6.42l4.8-1.9c.14.15 1.28-.4 1.98-.48-.1 0-.13-.01-.12-.03-.3.08-.42.1.2-.16-.01.01.02.01.02.02.1-.05.2-.1.26-.16.52-.1.46-.04.22.06.38-.13.8-.28.5-.07 1.04-.28 1.05-.56 1.6-.8l3.12-1.08-.2.1c.43-.1.64-.01 1.45-.3.48-.76 2.13-.72 3.88-1.5-.28-.1.66-.33.54-.44 1.8-.4 3.07-1.2 5.06-1.7l-.1.05a1.28 1.28 0 0 0 .79-.33c.24-.2.38-.5.4-.65.02.24.38-.32.37-.06-.01-.17.1-.53.1-.87.03-.34-.02-.64-.02-.64.05-.16 0-.35-.22-.84-.2-.44-.4-.94-.5-1.36l-.62-.92.3.3c-.24-.52-.18-.67-.03-.48-.08-.25-.17-.35-.35-.7l.18.12c-.22-.67-.6-.84-.37-.32-.87-1.2-.17-.85-.9-1.96l-.26-.17-.13-.08.13.08c-.04-.07-.07-.14-.1-.2-.03-.07-.06-.12-.05-.1.01-.04.03-.07.05-.1.04-.06.08-.15.03-.22-.02.01-.06.04-.1.07l.02-.14c-.1.07-.2.1-.13.22l-1.9.52-1.87.47c-.8.3.34 0-.02.23-.8.46-1.14.34-1.93.54l.26.05-1.58.47.2-.17-1.06.33c-.27.18.17.02.52-.05-1.14.34-1.96 1-3.18 1.16l.1-.16c0 .04.17-.02.26-.07 1.07-.56-.87.17-.95.1-.28.26-1.32.48-1.7.82-2.1.4-3.53 1.3-5.1 1.66.36-.23-.52.1-.5-.02-.7.15-.45.3-1.07.5h-.6c-1.34.7-1.04.1-2.37.66-.8.5-2.1.52-3.35 1.17l-.08-.1c-.98.44-1.58.4-2.37.73-.26-.05.18-.13.1-.27-.8.38.13-.32-.38 0-1.22.25-2.16 1.28-3.3 1.62-1.14.6-2.34.47-2.46.83l.63-.18-1.65.58-.08-.1c-.65.3-2.3.7-3.08 1.14.01-.01-.06 0-.1-.01-.83.37-1.1.3-1.8.73l.08-.07c-1.26.7-4.2 1.6-6.3 2.35-.12-.14-1.3.32-2.17.65.28-.1.28-.18.32-.22-.47.24-1 .4-1.52.53-.2.03-.48.07-.7.15a1 1 0 0 0 .23.27l-.04-.02c0 .04.04.1.1.2s.08.1.24.35c.25.4.47.8.4.97.95 1.17 1.6 2.35 2.6 4.28l-.1-.06c.37.8.64 1.65.92 2.06a2.66 2.66 0 0 0 1.12.93c.28.12.52.18.74.22.22-.02.43-.05.64-.12l2.72-.9 2.16-1c.95-.2 1.78-.47 3.14-1.04zm-81.48-29.72l-.07-.32c.5.82 1.05 1.4 1.57 2.05.38.28-.26-.63.4.05l1.58 2.1c-.14-.04-.67-.8-.62-.52.15.1.94 1.14.96.92l-.1.13c.24.24.3.5.56.86.16.14.3.23.03-.17.6.7 1.48 1.6 1.8 2.24.53.7.24.58.3.85.17.2.47.47.5.44l.05.1.3.23c.9 1.54 2.2 2.57 2.9 3.9-.25-.3-.63-.9-.75-.84l.78 1c-.34-.4-.65-.68-.6-.46l3.48 4.2c-.1.18.8 1.16 1.14 1.83-.04-.1-.04-.13-.01-.13-.2-.27-.23-.4.22.16-.02 0-.01.02-.01.03.08.08.17.17.24.2.28.5.2.45.02.24.25.34.55.7.24.47.63.96.9.88 1.32 1.36l2.1 2.8-.15-.16c.26.4.23.63.8 1.35.9.24 1.43 1.9 2.77 3.43 0-.32.54.56.6.4.5.84 1.06 1.5 1.63 2.2l.87 1.08.43.58c.08.1.17.22.3.32h-.06c.08.16.36.32.65.34s.54-.1.62-.2c-.1.2.42 0 .3.2.03-.08.1-.16.2-.26.07-.1.27-.32.45-.52l.7-.73c.38-.15 1.23-1.3 1.95-1.85l.64-1-.17.4c.4-.46.57-.47.44-.24.2-.18.27-.32.54-.64l-.04.22c.56-.5.56-.95.16-.5l.28-.46c.01-.03.03-.04.06-.05.06-.01.15-.02.2-.07-.02-.03-.08-.08-.18-.12a.54.54 0 0 0-.27.07c.02-.01.05-.03.08-.04-.02-.01 0 .02-.05-.03l-.13-.16c-.08-.1-.13-.18-.16-.24-.07-.13-.08-.2-.1-.3-.03-.16-.06-.3-.6-.88l.07-.1c-.27-.3-.5-.62-.53-.43l-2.38-3.6c-.57-.7.12.34-.23.05-.72-.66-.73-1.03-1.2-1.76l.04.27-1-1.44.23.13-.7-.95c-.27-.22.04.18.23.5-.73-1.03-1.64-1.65-2.22-2.8l.2.05c-.04.01.08.17.15.24.9.9-.46-.82-.43-.92-.34-.2-.92-1.17-1.38-1.44-1.12-1.96-2.5-3.12-3.37-4.58.34.3-.27-.5-.16-.52-.38-.65-.46-.36-.84-.9l-.23-.6c-1.14-1.12-.47-1-1.46-2.16-.76-.66-1.23-1.94-2.3-2.98l.07-.1c-.76-.84-.92-1.45-1.53-2.14-.04-.27.2.14.3.02-.65-.68.36.03-.13-.38-.66-1.14-1.98-1.77-2.7-2.8-.97-.96-1.27-2.2-1.65-2.2l.4.57-1.13-1.47.06-.1c-.5-.56-1.46-2.08-2.17-2.72.01 0-.02-.06-.03-.1-.65-.7-.67-1-1.33-1.58l.1.05c-1.1-1.04-3-3.7-4.45-5.56.1-.15-.8-1.22-1.36-1.93.15.2.26.2.3.22l-.3-.32c-.05-.06-.1-.12-.13-.2l-.3-.54a1.59 1.59 0 0 0-.23.64l-.01-.04c-.1.1-.08.17-.32.76-.2.47-.4.9-.57.95-.42 1.52-1.06 2.9-2.06 4.87v-.1c-.85 1.45-.7 2.9-.54 3.75l.2.8.36.6 1.8 2.45 1.7 1.86c.48.9 1.02 1.66 2.03 2.84zM305.4 432.53l-.3-.04c.95-.08 1.74-.27 2.56-.4.43-.15-.67 0 .25-.2l2.6-.4c-.1.07-1.02.2-.77.23.15-.06 1.46-.26 1.28-.33l.06.1c.33-.08.6-.05 1.03-.12.2-.06.36-.12-.13-.06l2.84-.5c.87-.13.62 0 .88.03.26-.05.65-.15.64-.2l.1-.01.35-.12c1.77-.14 3.33-.64 4.84-.73-.4.07-1.1.15-1.1.23l1.26-.2c-.5.1-.92.2-.7.23l5.4-1c.1.1 1.4-.2 2.15-.22-.1 0-.13-.01-.12-.02-.33.04-.46.04.25-.1-.01.01.01.01.02.01l.3-.1c.56-.04.48-.01.2.04.42-.06.9-.14.53-.03 1.14-.13 1.22-.3 1.85-.43l3.47-.54-.2.05c.47-.05.66.02 1.57-.13.67-.45 2.37-.36 4.36-.77-.27-.07.76-.18.66-.25 1.95-.2 3.46-.62 5.63-.85l-.1.03c.6 0 2.04-.3 2.53-.44-.3.12.77-.01.4.12.42-.18 2.33-.4 2.33-.4.38.05 1.77-.26 2.67-.3l1.13-.3-.4.15c.6-.1.73-.05.5.02.27-.03.42-.08.8-.15-.04.03-.1.07-.17.1.68-.08.73-.38.35-.2.48-.28.5-.4.62-.48.08-.08.24-.18.2-.65-.05-.1-.12-.17-.2-.24l.07.07c-.01-.03-.02-.06-.02-.1l-.01-.07c-.26-1.16.1-.5-.3-1.82l.07-.04c-.03-.06-.04-.13-.07-.13-.02.01-.04.04-.06.07l-3.72.35c-.9.15.35.02-.08.14-.95.24-1.26.15-2.12.23l.25.04-1.75.2.23-.1-1.17.15c-.32.1.17.02.55-.01-1.26.15-2.27.5-3.56.54l.14-.1c-.01.02.18 0 .3-.03 1.24-.3-.94.06-1 .01-.35.14-1.48.22-1.95.4-2.25.14-3.96.6-5.67.74.43-.12-.56.03-.52-.04-.75.05-.54.17-1.22.24l-.63-.02c-1.56.36-1.1.01-2.6.28-.96.26-2.3.2-3.74.54l-.06-.07c-1.12.22-1.72.15-2.63.32-.25-.04.22-.07.18-.16-.92.2.22-.2-.4-.02-1.32.1-2.55.66-3.8.8-1.33.3-2.52.16-2.74.38l.7-.08-1.85.27-.06-.06-3.45.53c.01-.01-.06 0-.1-.01-.95.18-1.2.13-2.05.35l.1-.04c-1.47.36-4.74.76-7.07 1.1-.1-.1-1.42.13-2.4.28.3-.04.33-.1.38-.12-1.33.3-2.83.26-4.2.58l.05-.02c-.54.02-2.15.4-2.42.25l-2.37.43-.65.1-.34.04-.13.01c-.27-.02-.2.1-.13.5l-.05-.1.38 2.48c.08.6.5 1.02.86 1.27.3.2.54.3.76.4.23.05.46.07.67.05l3.02-.45 2.48-.54c1.07-.03 2-.16 3.52-.45z"/><path d="M303.62 425.25c-.2-.53-.1-.74-.43-1.24-.12-.26-.3-.5-.44-.74-.18-.05-.18-.32-.35-.4l.03-.1c-.06-.03-.1-.07-.1-.13l.02-.01c-.1-.04-.1-.13-.15-.15h.02l-.06-.08h.03c-.12-.1-.2-.2-.26-.32l-.07.06c-.07-.28-.27-.26-.32-.52l.02-.01c-.36-.1-.17-.5-.55-.6.05.01.02-.04.04-.05-.1-.1-.22-.2-.36-.1-.07-.08-.02-.1.02-.15-.06.05-.14 0-.2-.06l.05.01-.18-.16-.07.13c-.06-.12.1-.14-.01-.2l-.08.08c-.1-.14-.07-.33-.14-.52-.53-.55-1.35-.7-1.85-1.17l.01-.1c.04-.12-.25.1-.22-.03h-.1c-.01-.03-.04-.07 0-.08-.06-.04-.07-.02-.14 0l-.04-.1c-.24-.16-.52-.12-.8-.23-.28-.27-.98-.3-1.36-.3-.55.07-1.08-.54-1.66-.4-.02-.02-.07.02-.07.03l-.5-.07c-.01-.04-2.4-.15-.64.97v.03c.25.08.4.1.6-.02.01.17.2.04.26.1l-.01.01c.17-.12.3.15.47.05-.01.01-.02.06-.05.06.1-.01.27-.02.26.08.26.02.6.12.8 0l-.02.02c.12-.1.12.01.24-.02 0 .01.01.02.01.03.13-.08.3.05.4.03l-.01.07.2.04-.07-.03c.07-.17.12.15.3.08.13.06.38-.28.5-.15.1-.06-.1.1.02.08-.03.1-.07.04-.06.12.1-.01.13.14.27.12v.07c.2-.07.25.2.4.12.18.01.02.24.24.18l.02.12c.06.05.1-.1.15-.01-.03.06.07.1 0 .12.12.17.4.03.53.3.1-.08.17.04.26-.02-.02.05.2.13.03.16-.02 0-.03-.01-.02-.03l-.05.05c.05.18.24.07.34.16-.02-.04-.06-.07-.01-.1l.1.08-.06.04.13.14.03-.08c.05.1 0 .2.14.18.07-.02 0-.14.1-.1.06.12.14.3.23.4.05-.07.08-.04.12-.03l-.05.06c.2.03-.07.16.1.22l-.05.03.14-.08c.2.01-.06.16.2.15-.05-.04.1-.13.13-.05l-.07.03c.04.02.08.01.08.05-.05.01-.1.06-.03.1l-.1.03.18.01c0 .13.18.18.12.28 0 0 .1.2.2.16-.08.01-.03.12-.12.14.1 0 .24.1.2.2h-.01c.07.24.33.26.37.5.07-.06.1.06.17-.02.22.13.03.46.36.35.07.08 0 .15.01.2l-.03-.01c.13.15.16.2.22.33.06.05.2-.02.24.1-.08-.01-.04.03-.02.08-.02-.02-.05-.02-.05.06.02 0 .04 0 .05.01v.01c.06.06.07.04.06 0 .01 0 .02-.01.03-.03-.03.1.1.2.02.26.13.2.32.3.44.47-.04.05-.1.02-.15-.02l.08.12c-.07.03-.08-.05-.1-.1-.04.2.28.26.25.5l.08.01v.02c.03-.01.1.01.1.03-.05.06-.15.07-.1.15-.03.1.12.2.2.27-.01-.06.03-.05.06-.04.02.04-.03.1.01.12l-.08.04c.07-.05.14.08.18.08-.05.05-.1-.05-.14-.04l.13.27c.1.07.08-.05.17-.04.05.08.15.14.14.26l.07-.06c.13.14.16.24.12.4.55.5.8.52.9.37s.07-.43.07-.43c0-.6-.33-.76-.65-1.32zm19.83-20.72c-.16.3-.34.3-.4.65-.07.14-.1.32-.14.47.1.12-.08.2-.01.32l-.08.01c.02.04.03.08-.02.1l-.02-.01c.03.06-.02.1 0 .13h-.02l-.01.05-.02-.02c.02.1 0 .17-.05.23l.08.03c-.15.1 0 .23-.16.3l-.02-.01c.15.25-.25.2-.12.45-.02-.03-.05-.01-.06-.02-.01.1-.03.17.13.24-.02.06-.07.03-.13.01.07.03.08.1.07.13l-.02-.03-.03.14.14.03c-.06.05-.17-.05-.16.03l.1.04c-.06.08-.25.07-.36.13-.2.36-.08.87-.4 1.14l-.1-.02c-.12-.04.14.17.02.14l.04.06c-.03 0-.06.02-.08-.01-.02.04 0 .04.02.1l-.1.01c-.12.12-.02.3-.12.45-.23.13-.23.53-.23.77.06.36-.54.5-.46.87-.02 0 .01.04.02.05l-.12.26s-.57 1.27.82.7l.02.02c.12-.12.17-.2.08-.36.17.05.06-.1.13-.13v.01c-.1-.14.18-.14.1-.27.01.01.05.03.05.05 0-.07 0-.17.1-.14.04-.16.16-.35.05-.5l.02.02c-.08-.1.01-.08-.01-.16h.03c-.08-.1.05-.18.03-.24l.06.02.03-.12-.03.04c-.16-.08.14-.05.07-.18.05-.07-.3-.3-.17-.36-.06-.07.12.1.08 0 .1.03.04.05.12.06-.02-.08.13-.06.1-.16l.07.02c-.1-.14.16-.14.07-.25-.02-.12.23.02.14-.14h.1c.03-.04-.1-.08-.04-.1.06.03.07-.04.12.01.14-.07-.04-.27.17-.35-.1-.08-.01-.12-.08-.18.05.02.07-.14.14-.02.01.01 0 .02-.02.01l.06.04c.16-.03-.01-.18.04-.25-.03.01-.04.05-.08.01l.04-.07.05.04.08-.1-.08-.01c.06-.04.2-.01.1-.1-.04-.05-.12.01-.12-.05.08-.05.2-.13.25-.22-.08-.02-.07-.05-.08-.08l.07.02c-.06-.14.17.03.13-.1l.04.03-.13-.08c-.1-.14.16.01.02-.16 0 .04-.16-.04-.1-.08l.06.04c0-.03-.03-.05-.01-.06.03.03.1.05.1 0l.07.06-.1-.12c.1-.03.04-.15.14-.14 0 0 .1-.1 0-.17.05.05.1-.01.17.04-.06-.06-.08-.18.01-.18l.01.01c.13-.1-.01-.28.13-.37-.08-.03-.01-.07-.12-.1-.05-.17.3-.15 0-.32.01-.07.1-.04.13-.06v.02c.02-.12.03-.15.07-.23-.01-.05-.16-.12-.1-.18.05.05.05.01.06-.01 0 .02.02.04.08.02-.02-.01-.02-.02-.03-.04h.01c0-.05-.02-.05-.04-.04-.01 0-.02-.01-.04-.01.1-.02.05-.13.15-.1.03-.15-.03-.3-.03-.4.06.01.1.05.1.1v-.1c.07.03.02.06.03.1.16-.05-.04-.25.12-.3l-.05-.05h.01c-.03-.01-.06-.05-.07-.08.07.01.15.06.17 0 .08-.02.02-.14.01-.2-.02.03-.06 0-.07-.02.01-.03.08-.02.06-.05l.1.03c-.1-.02-.06-.1-.1-.13.07.01.04.07.08.1l.06-.17c-.04-.1-.1-.02-.15-.08 0-.06-.04-.14.04-.17l-.1-.01c-.02-.12.01-.18.12-.2-.34-1-.8-.5-.8-.5-.27.2-.1.45-.18.82zm6.87 1.7c-.16.3-.34.3-.4.65-.07.14-.1.32-.14.47.1.12-.08.2-.01.32l-.08.01c.02.04.03.08-.02.1l-.02-.01c.03.06-.02.1 0 .13l-.02-.01-.01.05v-.02c.02.1 0 .17-.05.23l.08.03c-.15.1 0 .23-.16.3l-.02-.01c.15.25-.25.2-.12.45-.02-.03-.05-.01-.06-.02-.01.1-.03.17.13.24-.02.06-.07.03-.13.01.07.03.08.1.07.13l-.02-.03-.03.14.14.03c-.06.05-.17-.05-.16.03l.1.04c-.06.08-.25.07-.36.13-.2.36-.08.87-.4 1.14l-.1-.02c-.12-.04.14.17.02.14l.04.06c-.03 0-.06.02-.08-.01-.02.04 0 .04.02.1l-.1.01c-.12.12-.02.3-.12.45-.23.13-.23.53-.23.77.06.36-.54.5-.46.87-.02 0 .01.04.02.05l-.12.26s-.57 1.27.82.7l.02.02c.12-.12.17-.2.08-.36.17.05.06-.1.13-.13l.01.01c-.1-.14.18-.14.1-.27.01.01.05.03.05.05 0-.07 0-.17.1-.14.04-.16.16-.35.05-.5h.02c-.08-.1.01-.08-.01-.16h.03c-.08-.1.05-.18.03-.24l.06.02.03-.12-.03.04c-.16-.08.14-.05.07-.18.05-.07-.3-.3-.17-.36-.06-.07.12.1.08 0 .1.03.04.05.12.06-.02-.08.13-.06.1-.16l.07.02c-.1-.14.16-.14.07-.25-.02-.12.23.02.14-.14h.1c.03-.04-.1-.08-.04-.1.06.03.07-.04.12.01.14-.07-.04-.27.17-.35-.1-.08-.01-.12-.08-.18.05.02.07-.14.14-.02.01.01 0 .02-.02.01l.06.04c.16-.03-.01-.18.04-.25-.03.01-.04.05-.08.01l.04-.07.05.04.08-.1-.08-.01c.06-.04.2-.01.1-.1-.04-.05-.12.01-.12-.05.08-.05.2-.13.25-.22-.08-.02-.07-.05-.08-.08l.07.02c-.06-.14.17.03.13-.1l.04.03-.13-.08c-.1-.14.16.01.02-.16 0 .04-.16-.04-.1-.08l.06.04c0-.03-.03-.05-.01-.06.03.03.1.05.1 0l.07.06-.1-.12c.1-.03.04-.15.14-.14 0 0 .1-.1 0-.17.05.05.1-.01.17.04-.06-.06-.08-.18.01-.18h.01c.13-.1-.01-.28.13-.37-.08-.03-.01-.07-.12-.1-.05-.17.3-.15 0-.32.01-.07.1-.04.13-.06l.01.02c.02-.12.03-.15.07-.23-.01-.05-.16-.12-.1-.18.05.05.05.01.06-.01 0 .02.02.04.08.02-.02-.01-.02-.02-.03-.04h.01c0-.05-.02-.05-.04-.04-.01 0-.02-.01-.04-.01.1-.02.05-.13.15-.1.03-.15-.03-.3-.03-.4.06.01.1.05.1.1v-.1c.07.03.02.06.03.1.16-.05-.04-.25.12-.3l-.05-.05h.01c-.03-.01-.06-.05-.07-.08.07.01.15.06.17 0 .08-.02.02-.14.01-.2-.02.03-.06 0-.07-.02.01-.03.08-.02.06-.05l.1.03c-.1-.02-.06-.1-.1-.13.07.01.04.07.08.1l.06-.17c-.04-.1-.1-.02-.15-.08 0-.06-.04-.14.04-.17l-.1-.01c-.02-.12.01-.18.12-.2-.34-1-.8-.5-.8-.5-.26.2-.1.45-.18.82z"/></g><path xmlns="http://www.w3.org/2000/svg" d="M405.76 331.53v-.1c-.01.07-.01.1 0 .1z"/><g xmlns="http://www.w3.org/2000/svg" fill="#fff"><path d="M214.3 113.58s-16.8 3.1-32.4 7.5c-15.8 4.5-22.1 9-26.9 13.4-5.5 5.2-8 14.3-11.5 28.1-3.4 13.9-8.7 42.9-8.7 42.9s-3 5.7-2.6 13.4 1.2 8.5 1.4 9.6 1.7.2 1.7.2.24 3.13 1.54 3.63c1.3.4 1.73-1.5 1.73-1.5s.72 1.18 1.62 1.18 2.03-3.05 2.92-5.45c1.07-2.5 1.98-7.15 2.38-8.15.3-1 1 3.1 1.3 4.9.2 1.7 1.4 2.1 1.7-1s.9-5.7.9-6.5c0-.9-.2-3-.5-4.5l-.2-1.5s-.3-1.2 1-4.1c1.4-2.9 16.3-31.9 18.8-36.1 3.2-5.4 13.1-11.2 18.2-12.7 8.9-2.6 27.9-7.5 27.9-7.5l-.3-35.8zm22.6 46.2s9.3 15.1 21.6 25.9 15.4 11 22.2 11c7.9 0 15.7-4.5 27.5-12.6s34.6-25.1 34.6-25.1 6.5-3.4 11.3-9.5c4.8-6 4.7-6.32 5.3-7.32.66-1.88-1.1-2.08-1.1-2.08s1.6-1.8.9-3-2.24-.24-2.24-.24.48-1.05-.1-1.88c-.85-.4-2.33.44-5.05 2.02-1.7 1.3-6.9 3.6-7.8 4.1s1.2-2.1 2.2-3.5.4-3.5-1.9-1.4-4.8 3.4-5.3 4.1c-.6.6-1.8 2.3-2.6 3.6s-.6 1.6-.6 1.6-.6 1-3.5 2.3c-4.9 2.3-28.5 11.6-38.1 14.5-4.7 1.4-11.7 0-15.4-3.7s-21.3-26.7-21.3-26.7l-20.6 27.9z"/><path d="M327 148.78l4.5-2.4c.8-.3 1.7-.1 2.1.6l8.5 13c.5.8.3 1.8-.5 2.3l-3.9 2.4c-.8.5-1.8.3-2.3-.5l-9.1-13.4c-.6-.9-.3-1.6.7-2z"/></g><path xmlns="http://www.w3.org/2000/svg" d="M359.64 140.5c-.14-.23-.38-.42-.45-.46-.1-.06-.2-.1-.28-.12-.04 0-.02-.02.01-.05l.06-.07.1-.13c.07-.07.33-.45.5-.82.16-.36.3-.78.28-1.26-.03-.5-.24-1-.7-1.35-.23-.18-.52-.28-.8-.32-.15-.02-.27-.02-.4-.01-.03 0-.06 0-.1.01-.06.01-.12.02-.16.05-.01 0-.02.02-.02.01.03-.07.04-.14.05-.2v-.06l-.01-.1c-.01-.05-.01-.1-.02-.15-.03-.22-.16-.52-.3-.74-.1-.1-.12-.27-.27-.3-.13-.05-.26-.1-.4-.12-.26-.06-.6-.04-.77-.01-.8.15-1.4.47-2 .77l-1.74.97-.43.25c-.13.1-.3.15-.47.3-.24.18-.5.35-.78.5-1.1.66-2.27 1.25-3.45 1.84l-1.8.9c.03-.2.2-.36.3-.54l.8-1.1c.18-.25.43-.6.57-.96s.23-.76.18-1.22c-.04-.48-.35-1.05-.87-1.17-.52-.14-1.05.06-1.34.24-.68.38-1.13.9-1.6 1.28l-1.5 1.18-1.57 1.1c-.53.4-1.06.68-1.6 1.27l-.02.02c-.76.82-1.3 1.64-1.9 2.5l-.83 1.28c-.26.44-.56.93-.64 1.53 0 .03.02.06-.01.08-.02.04-.32.32-.54.48-.24.18-.5.35-.76.5l-.16.1c-.57-.63-1.55-.84-2.53-.47l-4.48 2.4c-.66.27-1.08.66-1.23 1.17-.04.14-.06.32-.05.53l-1.73.76-1.44.5-15.1 5.9c-3.34 1.14-8.1 2.92-13 4.47-2.35.75-4.94.72-7.26.32-2.33-.4-4.42-1.24-5.97-2.23-1.12-.67-2.06-1.6-2.97-2.64-.92-1.04-1.82-2.13-2.72-3.24-1.8-2.22-3.6-4.53-5.37-6.85l-1.05-1.36c.28-.2.53-.4.7-.54l.12.05 2.4-1.78-1.07.75c.03-.12.13-.22.36-.4.28-.2.65-.44 1.12-.74.12-.08.24-.15.36-.23.05-.04.16-.08.15-.13l-.12-.18-.52-.8c-.1-.14-.2-.28-.3-.43-.1-.12-.18-.25-.27-.38-.14-.2-.3-.38-.45-.56-1.03-1.52-2.67-2.65-3.66-4.28-.65-.65.66.5-.23-.52.1-.13.45.46.35.1-.84-1.03-1.15-1.87-2.2-3.13l.06-.13c-1.44-1.6-2.25-3.36-3.28-4.38-1.4-1.7-.58-1.4-2.16-3.1l-.4-.82c-.57-.8-.6-.44-1.18-1.36.12-.01-.77-1.15-.3-.7-1.38-2.06-3.23-3.85-5.1-6.55-.27-.18-.6-.54-.94-.9-.48-.67-.98-1.32-1.5-1.96l.06.02c-.42-.6-.86-1.08-1.33-1.54-2.83-3.23-6.1-6.04-9.83-8.05l-.54-.36-1.56-1.55a29.77 29.77 0 0 0-6.87-2.02c-.2-.08-.38-.14-.58-.2-.12-.1-1.06-.15-2.03-.1-.97.07-1.96.14-2.2.04l-1.53.15c-.43-.02-1.35-.01-.58-.1-1.43.07-1.47.13-2.5.3-.52.02-1.04.06-1.57.1-2.28.38-4.4 1.2-6.24 2.4l-.07.04v.01l-.03.02-.1.07-.14.1-.25.18-.47.36-.93.7-.45.35c-.05.03-.22.16-.3.23l-.25.23a13 13 0 0 0-.87.96l-.18.24c-.93.17-1.87.4-1.98.3-3.05.75-5.15 1.53-7.64 2.27-.3-.01.26-.26.98-.48l-1.77.53c-.02-.13 1-.38 1.54-.54-1.1.17-2.17.57-3.3.95-1.1.43-2.27.85-3.5 1.2l-.47.28-.15.04c.03.05-.5.32-.84.47-.38.02-.08-.27-1.26.2-.98.26-2.66 1.1-3.85 1.66.67-.25.48-.1.2.05-.6.25-.97.28-1.4.5l-.12-.12c.3.04-1.47.8-1.66.96-.38.04.87-.48.98-.63-2.34 1.03-1.18.5-3.5 1.55-1.2.66.3.04-.25.43-1.1.5-2.1 1.1-3.4 1.6l.46-.06c-2 1.05-3.22 1.62-4.65 2.16l-3.08 1.83-3.64 1.87c-.08-.05-.13-.04-.13.07l-.22.12.26.46c-.5.45-.32.52.17.36.01 0 .02-.01.03-.01l.03.06c.18.5.45 1.16.83 2.03-1.24.54-2.4 1.08-3.54 1.65-1.7.87-3.38 1.83-5.22 3.1-.92.63-1.87 1.35-2.87 2.18-1 .84-2.05 1.73-3.13 2.93-1 1.13-1.88 2.4-2.68 3.7-.75 1.33-1.45 2.7-2.03 4.1-1.2 2.8-2.1 5.66-2.9 8.4-.66 2.63-2 7.2-2.66 10.33l-.37 1.18a67.56 67.56 0 0 1-.78 3.42v-.07l-.9 4.22-.01-.07-.4 1.95.04-.34-1.68 8.25.13-.2c-1.2 5.43-1.4 7.46-2.47 12.37l-.01-.07c-.5 3.14-1 5.6-1.5 8.07l-.76 3.83-.2 1.03-.03.16-.1.2c-.08.17-.15.34-.23.52-.3.7-.55 1.45-.8 2.25.24-.8-.16.32-.15.26-.95 2.94-1.23 6.23-1.07 6.3-.17 2.22-.14 1.8-.23 2.1.04-.01.04.48.08 1.18.03.7.1 1.6.15 2.47l-.08-.8c.1 1.64.24 3.28.5 4.92l.01-.98c.14 1.3.14 1.47.13 1.63 0 .16-.04.3.27 1.54l.1-.06c.1.37.2.72.3 1.05.04.16.1.32.13.47s.07.38.17.6c.2.42.7.55 1.12.48.17-.03.3-.06.44-.1.07.68.2 1.35.44 2.05.18.44.38.93.92 1.34.3.2.66.3 1.05.28s.77-.24 1-.5a2.65 2.65 0 0 0 .26-.31c.02-.02.03-.05.05-.07.03-.05.05-.1.06-.16.04.02.1.12.16.17l.02.02s.02.02 0 0l.06.05c.08.06.17.12.26.18.2.1.38.2.68.25.27.04.57.02.8-.13.13-.05.24-.15.34-.24.1-.08.15-.15.22-.23.26-.3.43-.6.6-.92.65-1.22 1.1-2.46 1.56-3.7.47-1.2.94-2.52 1.26-3.8l.5-1.93.24-1c.05-.14.06-.38.17-.46.1.14.12.3.16.47l.13.62.27 1.47.06.37c.02.1.06.37.1.54.07.4.23.72.4 1 .2.24.43.45.77.46.34 0 .58-.2.77-.43.2-.24.35-.58.45-.96.07-.2.1-.34.12-.5a4.23 4.23 0 0 0 .07-.43l.16-1.48a55.84 55.84 0 0 1 .42-2.89c.13-.97.4-1.88.36-2.98-.04-1-.14-1.95-.27-2.9-.06-.47-.15-.97-.22-1.4l-.17-1.4-.02-.08c-.03-.3.03-.8.13-1.23a10.38 10.38 0 0 1 .4-1.31c.1-.17.2-.34.28-.5.12-.16 1.44-3.37 1.77-3.78l.66-1.42c.22-.38.66-1.2.34-.5.66-1.3.66-1.33 1.1-2.28l.78-1.35 7.57-14.77 6.67-12.4c1.27-2.2 3.2-4.02 5.08-5.56 1.9-1.55 3.82-2.83 5.5-3.82.82-.5 1.67-.96 2.54-1.4l-.27-.86-.68.35c-.12.05-.27.12-.25.1-1 .6-2.47 1.42-3.84 2.32-1.37.9-2.66 1.8-3.38 2.42l-.14.02c-1.2.96-2.37 2-3.4 3.15a17.84 17.84 0 0 1 1.23-1.23c-.16.27-.8.85-1.65 1.76-.85.9-1.75 2.26-2.47 3.75-1.5 2.72-2.64 5.74-4.22 8.56-.64 1.4.5-1.27-.5.8-.12.02.44-.98.1-.5-1 2.02-1.8 3.24-3.03 5.74l-.12.07c-1.55 3.3-3.24 6.05-4.23 8.26-1.66 3.36-1.35 2.13-3 5.68l-.78 1.3c-.77 1.48-.43 1.12-1.3 2.75-.01-.14-1.1 2.1-.67 1.08-.4.7-.7 1.48-.96 2.27-.13.4-.24.82-.3 1.25-.07.46-.14.84-.05 1.47v.02c.1.67.2 1.4.34 2.1a33.11 33.11 0 0 1 .3 2.16c.06.74.17 1.52.04 2.2-.12.77-.28 1.6-.44 2.44-.03.6-.17 1.6-.27 2.56l-.13 1.33a7.27 7.27 0 0 0-.05.4c-.01.06-.01.1-.01.16-.02 0-.04.13-.17.24-.06.06-.18.03-.22-.06a.63.63 0 0 1-.09-.25c-.01-.1-.03-.2-.04-.28-.02-.16-.04-.28-.04-.32s.02.01.05.15c.02.07.04.16.06.27a.69.69 0 0 0 .04.1c.02.05.06.14.05.17.03-.01.06-.04.08-.08-.04-.06-.04-.12-.05-.16v-.06l-.08-.48-.18-1-.26-1.27c-.13-.6-.27-1.2-.43-1.66-.17-.48-.37-.72-.54-.84-.04-.02-.07-.05-.1-.07a.37.37 0 0 0-.19-.18s-1.9-1-2.8-2.9c-.8-1.8.2-4.8.2-4.8.1-.2 0-.4-.2-.5s-.4 0-.5.2c0 .1-1.1 3.3-.1 5.5.77 1.64 2 2.62 2.7 3.05-.02.02-.04.04-.05.07l-.14.3c-.13.35-.23.8-.35 1.2.12-.4.23-.86.36-1.2.08-.17.15-.3.22-.38.02.01.04.02.05.03l-.15.05-.15.32c-.18.55-.35 1.2-.5 1.83l-.33 1.3.1-.6c-.36 1.38-.73 2.77-1.2 4.1l.25-.53c-.32 1-.65 1.58-.93 2.3-.3.7-.55 1.4-.97 2.5-.37 1 .87-1.75.02.25-.14.3-.3.6-.48.9-.17.3-.4.63-.57.75-.1.07-.18.07-.47-.12l-.1-.07-.2-.2c-.1-.1-.2-.25-.3-.38.1-1.6 1.16-7.12 1.32-7.96.46-.12.94-.28 1.42-.52.2 0 .3-.3.2-.5 0-.2-.3-.3-.5-.2-4 1.7-7.3-1-7.4-1.1a.47.47 0 0 0-.6.1.47.47 0 0 0 .1.6 17.19 17.19 0 0 0 .7.5 9.04 9.04 0 0 0 1.5.75l-.56 5.7-.34.2a2.31 2.31 0 0 1-.56.24c-.03-.02-.03-.04-.05-.07-.1.03-.17-.02-.18-.1a3.77 3.77 0 0 1-.09-.36c-.03-.12-.06-.22-.1-.3-.1-.35-.12-.5-.15-.68-.03-.34-.12-.63-.43-2.46l.1.32-.3-.95c-.27-1.67-.25-2.13-.26-2.64 0-.5-.04-1.07-.2-2.93.06 1.47-.17.7-.14-1.12.02.15.04.3.07.46 0-1-.03-1.34.04-2 0 .6.06.32.2-1.15a16.34 16.34 0 0 0 0 .99c.02-.93.1-1.85.2-2.78.23-1.06.53-2.4.9-3.6.36-1.18.77-2.17 1-2.55.01-.02.1-.22.33-.7.06-.08.06-.2.08-.3.01-.06.02-.12.04-.2.02-.13.05-.27.08-.42l.17-.93c.24-1.3.5-2.73.54-3.27-.1.95.4-1.6.34-.87.15-1.22.76-4.78 1.12-6.2l-.04.27 2.68-13.7c-.13.2.42-2.28.2-1.7.88-4.9 2.1-8.82 2.14-10.64.48-2.2.67-2.6.96-3.72l-.1.53c.95-4.12 1.3-5.3 2.1-8.34.38-1.52.28-1.8 1.1-4.5-.2.9.1-.22.42-1.22-.2.64-.23.85.22-.46.04-.2.12-.48.2-.75.01-.01.03-.06.03-.03.52-1.67.4-1.4.15-.62 0-.04-.03.02-.12.25.6-1.72 1.68-4.77 1.88-4.93 1.95-4.85 4-8.07 7.4-10.85.4-.27-.35.4-1.27 1.28.75-.7 1.54-1.37 2.34-2.02.03.07-1.35 1.15-2.04 1.8 2.8-2.36 5.87-4.84 9.8-6.68.25-.16.5-.3.77-.46l.24-.1c-.01-.01.2-.13.48-.3a16.19 16.19 0 0 1 .93-.47c.26-.08.3-.06.42-.08.45 1.02 1 2.23 1.7 3.7l-.1-.1c1.55 2.95 2.57 4.78 3.9 6.66-.07.46 1.33 2.4 1.63 3.1l-.06-.05c1.2 1.65 1.9 3.73 3.05 5.33-.06-.05-.15-.05-.37-.44.74 1.22 1.76 2.88 1.67 3.06 1.72 2.94 4 7.1 5.32 8.87l-.1-.1c.77 1 .82 1.4 1.6 2.55.02.08.06.17.04.16.83 1.1 1.98 3.42 2.6 4.34l-.06.12 1.53 2.63-.65-1.18c.12.06.2.13.36.43s.37.7.6 1.2c.06.12.13.25.2.4.02.1.1.03.16.01l.2-.1.85-.43c.7-.37 1.02-.55 1.43-.84l-.48 4.06c-.08.35-.14 1.27-.12 1.26l-1.4 9.9-2.5 19.48c-.53 4.92-.7 7.88.2 4.14l-.22 1.64c0 .2-.1.9-.2 1.1v.1c0 .3-.1.4-.1.5v.1h5.42l-5.42.35-.3.03-.03-.37-.01-.08a.41.41 0 0 1 .02-.18 1.27 1.27 0 0 1 .04-.15c.01-.07.01-.1 0-.2.01-.07-.01-.14.02-.2.07-.37.06-.6.06-.84 0-.04-.01-.1-.02-.14H189l-.06-.38c-.06-.28-.1-.37-.17-.3-.05.06-.1.26-.14.57l-.01.06v.07.04c-.02.07-.04.15-.06.23s-.05.17-.07.26c-.04.1-.03.1-.1.33-.03.08-.04.17-.07.27v.07c-.03 0-.02-.01-.1.18-.01.05-.03.12-.04.2l-.01.14v.08l-.06 1 1.14.07c2.38.14 5.6.2 5.6.2 10.87.3 16.5-.1 29.43-.2 11.38.07 14.4.34 26.2.23l17.13-.07c.33-.03.68-.05 1.07-.06l2.22-.03h.3c.1-.01.24.04.18-.1-.02-.2-.03-.4-.05-.6l-.1-1.22-.13-1.72c-.14-1.86-.28-3.78-.5-5.3l.02-1.2c-.15-1.06-.3-2.3-.3-3.37l.04.06c0-.02 0-.04-.01-.05a26.66 26.66 0 0 0 1.2.59c1.75.78 3.7 1.3 5.9 1.42 1.1.08 2.25.08 3.5.07 1.3-.02 2.7-.15 4.2-.46 5.8-1.16 11.18-4.33 15.88-7.28 2.18-1.5 6.12-4 8.63-5.87l1.04-.63c.86-.65 1.88-1.4 2.8-1.98l-.04.06c1.28-.98 2.77-2 3.4-2.5l-.04.06 1.58-1.14-.25.22 6.65-4.85-.22.05c4.45-3.12 5.95-4.45 9.97-7.26l-.04.06 1.14-.9c.36.25.77.4 1.2.4.4 0 .8-.1 1.18-.34l3.9-2.4c.96-.6 1.26-1.8.75-2.8.17-.13.35-.25.52-.38l.83-.47a29.68 29.68 0 0 0 3.62-2.53c-.63.5.3-.17.26-.1 2.38-1.8 4.6-4.13 4.5-4.28 1.48-1.6 1.22-1.28 1.46-1.45-.03-.02.25-.4.67-.94l1.47-1.9-.46.62c.98-1.27 1.97-2.53 2.9-3.85l-.67.7c.77-1.02.9-1.14 1-1.25.1-.1.24-.2.83-1.3l-.12-.03.17-.3c.1-.1.13-.3.16-.4a2.15 2.15 0 0 0 .1-.76c-.06-.3-.13-.57-.28-.8zM136.1 229.38l.68-6.85c.8.22 1.7.35 2.7.25l-1.05 6.76c-.04-.05-.08-.1-.1-.15l-.44 1.52c-.07.2-.2.48-.28.55-.05.06-.1.12-.15.16a.35.35 0 0 1-.25.09.35.35 0 0 1-.25-.11c-.2-.17-.4-.55-.54-.95-.14-.4-.23-.82-.3-1.24v-.03zm190.4-79.6c.06-.2.3-.4.67-.54l4.5-2.4c.17-.06.36-.1.55-.1.38 0 .75.15.96.5l1.53 2.34c-1.07.55-2.6 1.48-3.9 2.26l-1.65 1c-.24.13-.43.25-.6.37l-1.84-2.7c-.14-.2-.28-.5-.2-.72zm-3.97 23.42c-3.87 2.94-7.32 5-8.55 6.3-1.8 1.3-2.2 1.45-3.13 2.1l.42-.32-6.92 4.78c-1.26.87-1.37 1.15-3.7 2.6.72-.53-.22.1-1.1.63.55-.35.72-.47-.46.2-.15.12-.4.28-.63.43-.01 0-.06.03-.04.01-1.46.9-1.2.75-.5.36-.03.03.04.01.25-.1-1.56.85-4.3 2.43-4.56 2.4-4.56 2.3-8.08 3.58-12.32 3.8-.48-.06.5-.07 1.73-.25-1 .13-1.98.16-3 .16.03-.08 1.73-.04 2.64-.17-3.5.05-7.54.48-11.26-1.5l-.8-.32-.2-.13c0 .02-.2-.08-.5-.22s-.63-.3-.9-.48c-.46-.4.1-.1-1.63-1.25-1.33-.97-3.8-2.76-5.5-4.15.9.76.58.55.17.24-.8-.67-1.23-1.1-1.86-1.62l-.01-.1c-.15-.03-2.17-1.78-2.44-2-.4-.46 1.24 1.06 1.48 1.18-3.13-2.82-1.6-1.37-4.62-4.3-1.62-1.55.22.36-.6-.35-1.4-1.4-2.78-2.78-4.24-4.53l.4.6c-2.52-2.76-3.9-4.52-5.4-6.55l-.5-.62-.1.1c-1.14-1.47-2.17-2.86-3.07-4.1 1.34-.95 2.42-1.8 3.5-2.75.46.02 2.23-1.58 2.92-1.96l-.05.06c1.52-1.37 3.5-2.3 4.97-3.6-.05.06-.04.15-.4.42 1.13-.86 2.68-2.06 2.86-2 2.73-2.03 6.63-4.75 8.24-6.25l-.1.13c.9-.87 1.3-.96 2.36-1.85.07-.03.16-.08.15-.06.56-.53 1.5-1.2 2.37-1.82 2.82 3.57 5.78 7.26 7.52 9.16l-.18-.17c.7.76 1.13 1.27 1.6 1.8.46.53.92 1.1 1.78 1.92.1.1.2.22.18.2.9.76 2.3 1.7 3.8 2.37 1.48.68 3 1.08 3.92 1.23l.1.1c1.5.28 3.03.4 4.57.3-.57.03-1.15.03-1.72 0 .3-.08 1.16 0 2.37-.1.6-.04 1.3-.12 2.03-.3.74-.17 1.46-.44 2.24-.7 2.9-.92 5.72-2.35 8.7-3.35 1.38-.6-1.2.6.9-.25.1.06-.97.42-.4.3 2.06-.8 3.44-1.16 5.96-2.2l.13.03c3.28-1.4 6.3-2.3 8.46-3.3 3.4-1.4 2.37-.7 5.86-2.26l.1-.04c0 .01 0 .01.01.02l1.94 2.85c-.28.43-.36.92-.42 1.62v.01c-.13 2.02 4.47 7.8 4.52 7.85.62.75 1.34 1.13 2.17 1.14l-10.3 7.57c.26-.01-1.78 1.4-1.22 1.13zm18.8-11.35l-3.9 2.4c-.28.17-.6.23-.9.17-.22-.05-.4-.18-.57-.36.48-.22.98-.5 1.52-.88.78-.56 1.56-1.06 2.24-1.5.78-.5 1.45-.94 1.97-1.36.3.56.15 1.2-.37 1.54zm17.54-20.27c-.01.1-.06.2-.1.27-.03.06 0-.02-.08.1-.24.3-.35.58-1.32 2.04l.14-.3-.43.87c-1.88 2.74-1.2 1.34-3.33 4.38.9-1.17.56-.42-.6.94l.23-.4c-.6.78-.8 1.04-1.27 1.5.35-.47.15-.28-.85.76.2-.26.42-.5.6-.76-.6.7-1.2 1.37-1.84 2.03-.8.7-1.84 1.6-2.8 2.32-.96.74-1.84 1.34-2.23 1.54 0 0-.92.6-2 1.23.07-1.5-1.02-3.12-2.27-4.95l-.25-.36c-1.42-2.1-3.1-4.13-4.88-3.62l-1.18-1.8a5.84 5.84 0 0 0 .53-.33c.2-.15.42-.3.63-.48.1-.1.2-.18.3-.28a4.02 4.02 0 0 0 .39-.46c.01-.15 0-.24 0-.38.2-.65.74-1.5 1.28-2.32.55-.8 1.16-1.7 1.83-2.4.02-.02.08-.1.08-.1.24-.26.73-.58 1.18-.88.9-.74 3.2-2.3 3.77-3.02.04-.02.3-.26.64-.5.17-.12.36-.24.54-.3.17-.06.24-.07.32-.04.15.1.14.2.13.28-.02.04 0-.15-.17-.2-.03-.01-.07 0-.1 0-.05.01-.12.03-.1.02-.04.03-.13.12-.2.17l.2-.08.12-.03c.02 0 .04.01.06.02.03.05.04-.01.03.23-.01.47-.3.87-.73 1.48l-.8 1.13c-.37.5-.75 1.04-.98 1.5-.22.45-.2.7-.18.92.01.05.02.1.05.17.01.03.04.08.08.1.03.02.05.03.07.03l.27.07c-.14-.04-.2-.05-.33-.1-.15-.2-.1-.28-.1-.4.02-.23.06-.3.05-.05-.01.08-.01.15.01.23.01.04.01.07.04.13.04.07.1.07.1.08.1.01.22.03.38.04l.3-.02c.13-.03.32-.12.48-.18.32-.1.72-.33 1.07-.5l-.96.53 2.76-1.3 1.9-.94-.56.2c.94-.46 1.58-.75 2.24-1.1.33-.18.67-.38 1.05-.66l1.2-.74c.88-.57-1.74.87.13-.22.62-.33 1.33-.7 2.07-1 .33-.14.84-.22.85-.17.07.01.1.07.1.13 0 .01.02.08.03.18.01.1-.01.4-.08.6.02.02.03.04.05.06l-6.66 4.8c-.2.2-.32.5-.12.7.2.2.5.32.7.12l6.8-4.92c.07.05.16.1.26.18.75-.3.8-.18.92-.15a.54.54 0 0 1 .27.3c.12.24.03.72-.2 1.17.07-.08.07-.03.03.1-.03.06-.06.14-.12.24-.02.04-.06.1-.1.16-.06.01-.13.04-.2.1l-6.25 4.9c-.3.18-.32.48-.13.7.1.1.3.2.4.22.1 0 .2.01.4-.28l5.68-4.46.01.1.2.37c.43.16.4.2.46.26.04.06.07.12.08.18.04.05.04.2.01.3z"/><g xmlns="http://www.w3.org/2000/svg" fill="#fff"><path d="M200.65 208.25c0-.02-.06-.03-.2-.03l.2.03zm8.05 1.15h0c-.03 0-.05.01-.07.01h.07z"/><path d="M226.8 207.9h0l.08-.06zm41.2.3l.06-.03c-1.37-.07-2.23-.08-3.18.06-.15-.17-1.12-.02-1.45-.07l.03-.01c-.83.13-1.72-.1-2.53.01.03-.01.05-.06.23-.06-.6.02-1.4.06-1.43-.04-1.4.03-3.36-.02-4.25.14l.06-.03c-.5.1-.66.02-1.23.07-.03-.01-.07-.02-.06-.03-.56.1-1.63.02-2.08.06l-.03-.07-1.1.02.4.01c-.14.18-.84-.12-1.64 0-.75-.02-1.53.38-2.3.3-.37.1.33-.14-.23-.07-.02-.1.26-.06.12-.14-.55.05-.9-.1-1.57-.03l-.03-.07c-.88.14-1.66-.1-2.25.03-.9.06-.6-.22-1.56-.08l-.37-.1c-.4-.02-.3.12-.74.07.03-.06-.57-.05-.3-.1-1.02-.1-2.06.14-3.4-.03-.3.12-.96.05-1.18.14-.04-.05-1.35-.01-.6-.13.06-.01.18-.01.17.01l.1-.07c-.76-.14-1.4.08-2.14.05.22.02.52.02.32.07l-.7-.01.15-.06-1.04-.04.14.08c-.5-.04-.7-.17-1.27-.06-.26.06.48.1-.06.13l-2.58-.15c.08.1-.15.08-.4.1l-.03-.07c-.93.1-.34-.16-1.26-.08l-.16.1c-.83.15-.45-.15-1.37.05.36-.01.17.16-.28.13l.1-.07c-.25.02-.33.05-.5.03.15-.04.08-.1-.3-.1l.24-.1-.7.13c-.53-.08-1.38.02-1.6-.08 0 0-1.15-.05-1.4.06.23-.07-.4-.1-.22-.18-.3.08-1.17.14-1.52.06l.07-.01c-1.3-.1-2.22.12-3.38.01.05.1-.56.04-.4.15-1.2.1-2.2-.23-2.63.12-.55.02-.65-.08-.93-.1l.13-.02-2.1.02c-.38.03-.44.2-1.12.15.22-.06-.06-.05-.3-.05.16-.01.2-.03-.12-.08-.05.02-.12.03-.2.04 0-.01-.02-.01-.01-.02-.43.02-.35.04-.15.05-.01.01.01.02.07.04-.44-.08-1.23.01-1.3-.1l-3.26.18c-.12-.06.13-.1.44-.13l-.76.02c.01-.08.43-.05.67-.06-.9-.13-1.86.13-2.9.01l-.22.06-.06-.01c0 .03-.23.08-.4.1-.15-.07.01-.16-.5-.16-.4-.07-1.17.03-1.72.07.3.01.2.05.07.08-.26 0-.4-.07-.6-.04l-.03-.1c.1.1-.68.1-.78.13-.15-.07.4-.06.47-.1h-1.57c-.56.07.1.1-.17.17-.5.02-.98.08-1.54.03l.18.08c-.93.07-1.48.06-2.1-.03-6.9.68-1.46.93-1.46.93 2.72.2 4.12-.06 7.36-.12l6.55.14 4.28-.04c.65-.13 1.8 0 2.58-.1l.3.07c.27-.04.58-.06.85-.02l-.02.02c.4-.05.85-.02 1.04-.05v.02h.48l-.08.03c.7-.06 1.4-.06 2.04-.04l-.05-.1c1.35.1 1.84-.08 3.05.03l-.02.02c1.54-.23 2.43.16 4-.06-.2.03.08.04.07.07.73-.02 1.5-.04 1.52-.2.53 0 .43.05.5.12 0-.08.46-.1.87-.1l-.2.03 1.2-.03-.23-.14c.63.04.16.17.76.14v-.12c.87.02 1.38.2 2.23.3 3.5.05 7.28-.25 10.54-.04l.14.1c.06.13.9-.2 1.02-.07l.38-.06c.1.02.33.05.14.08.35.01.36-.02.6-.05l.38.08c1.4.06 2.56-.1 4.02-.06 1.75.16 5.05.01 6.95-.07 2.67-.2 5.77.32 8.5.1.1.02.32-.02.32-.04l2.5.02c.05.03 12.18.08 2.97-1zm-35.13-37.13c.01.01.05 0 .15-.05l-.15.05zm-3.92-.1l.04.04zm-7.6-11.08h0l-.08-.03z"/><path d="M210.16 131.54c.2 1 .36 1.6.7 2.24-.13.15.22.8.23 1.05l-.02-.02c.3.55.26 1.25.56 1.78-.02-.02-.07-.02-.1-.15.15.4.37.96.28 1.02.34.98.75 2.37 1.13 2.95l-.04-.03c.23.32.17.46.36.84 0 .03 0 .06-.01.05.24.35.42 1.13.58 1.43l-.06.04.3.76-.1-.3c.2.04.1.62.44 1.14.17.53.77.9.9 1.48.18.22-.22-.17 0 .18-.08.05-.13-.16-.16-.03.2.36.15.66.4 1.1l-.06.05c.38.55.4 1.17.7 1.52.34.6-.01.5.4 1.08v.3c.1.28.2.14.3.47-.07.01.14.4 0 .25.24.72.78 1.32 1.07 2.28.2.14.36.62.5.72-.04.05.43.9.08.45-.03-.04-.07-.12-.04-.12l-.1-.03c.12.57.53.88.76 1.4-.05-.16-.16-.35-.05-.24l.22.47-.1-.07.3.7.02-.13c.14.36.08.53.37.86.14.14-.07-.37.13-.02l.73 1.77c.05-.1.13.06.22.2l-.06.05c.4.56-.03.3.35.86l.15.06c.4.48.01.36.5.87-.14-.23.1-.2.2.12l-.1-.04c.1.16.15.2.2.3-.08-.08-.12 0 .02.23l-.16-.12.35.4c.1.4.5.9.48 1.08 0 0 .35.77.54.9-.14-.12.05.3-.08.23.17.16.53.7.58.97l-.03-.04c.38.9.88 1.4 1.2 2.2.06-.08.23.35.28.2.52.73.57 1.53 1.03 1.65.2.35.16.46.24.65l-.06-.08.76 1.34c.16.23.33.2.53.65-.13-.1-.02.06.07.23-.07-.1-.1-.12-.02.12a.47.47 0 0 1 .1.1c.16.27.15.22.1.08.01 0 .02-.01.01-.06.05.18.13.3.27.58.14.25.25.46.23.54l.27.45c.03.12.12.02.2-.02l.2-.15.75-.54.9-.7c.1 0-.02.14-.2.28l.46-.32c.04.07-.25.2-.38.32.63-.25 1.08-.85 1.8-1.17l.1-.14.04-.02c-.02-.03.1-.16.2-.23.13 0 .08.14.4-.07.3-.1.7-.5 1.03-.74-.2.1-.15.04-.1-.03.16-.1.3-.1.4-.2l.07.07c-.1-.03.37-.35.4-.42.13 0-.22.2-.23.28l.97-.64c.3-.28-.1-.03.01-.2.3-.2.56-.46.94-.64h-.16c.54-.42.9-.64 1.33-.8 3.93-3.32.4-1.36.4-1.36-1.8.92-2.53 1.7-4.5 3.03l-4.54 2.74h-.01c-.01 0-.02.03-.03.02l-.02-.01h-.01l-.1-.16-.4-.67c-.34-.36-.64-1.16-1-1.6l-.04-.23c-.13-.15-.26-.35-.32-.54h.02c-.2-.23-.32-.54-.4-.65h.02l-.18-.3.06.04a9.64 9.64 0 0 1-.75-1.3l-.06.08c-.38-.92-.72-1.15-1.04-2h.02c-.74-.9-.7-1.65-1.44-2.58.1.12.01-.08.03-.08-.27-.46-.55-.97-.7-.9-.18-.35-.1-.3-.07-.38-.07.04-.25-.25-.4-.52l.1.1-.43-.77-.05.22c-.18-.43.1-.18-.14-.56l-.1.06c-.27-.58-.3-1-.5-1.6l-3.5-6.93.03-.13c.1-.1-.46-.52-.4-.65l-.17-.23c-.01-.08-.06-.24.03-.13-.1-.24-.12-.23-.24-.38l-.04-.28c-.37-.94-.84-1.68-1.22-2.68-.34-1.25-1.34-3.45-1.88-4.74-.84-1.8-1.07-4.12-1.86-5.97 0-.07-.1-.22-.1-.2l-.5-1.77c-.05.02-2.26-8.63-1.56-1.8l.03-.04zm-16.76 24.63c-.02 0-.04.03-.07.14l.07-.14zm2.43-5.4h0v.05-.05z"/><path d="M192.9 163.56c.62-1.87.6-2.9 1.07-5.2l1.2-4.57.65-3.02c-.02-.5.3-1.27.3-1.83l.12-.2c.01-.2.03-.42.12-.6l.02.02c.01-.3.12-.6.12-.74l.02.02.07-.34.02.07a8.94 8.94 0 0 1 .3-1.44l-.1.02c.3-.92.22-1.3.53-2.14l.02.02c.02-1.13.55-1.67.6-2.83-.01.14.06-.05.08-.03.1-.52.2-1.07.04-1.1.1-.37.12-.3.2-.32-.07-.02-.03-.35.03-.64v.14l.17-.84-.18.13c.14-.43.2-.07.26-.5l-.12-.02c.16-.6.42-.92.64-1.5.6-2.45.95-5.16 1.78-7.36l.1-.08c.14-.01-.02-.67.12-.73l.01-.28c.04-.07.1-.22.1-.08.08-.24.06-.25.07-.44l.15-.24c.34-.94.4-1.8.76-2.78.52-1.15 1.1-3.45 1.48-4.76.44-1.88 1.7-3.78 2.24-5.67.04-.05.07-.22.05-.22l.7-1.64 1.36-3.24c.24-.63.38-1.08.2-1.05s-.7.55-1.64 1.95v-.05c-.48.87-.75 1.44-.88 2.12-.2.03-.34.74-.48.93v-.03c-.1.6-.58 1.1-.68 1.7 0-.03-.04-.06 0-.18-.13.4-.3.96-.4.95-.35.95-.87 2.27-.94 2.93v-.05c-.02.4-.14.46-.23.87l-.04.04c-.03.42-.38 1.1-.43 1.44h-.07l-.24.77.1-.28c.14.16-.3.54-.37 1.13-.2.5.03 1.17-.22 1.68 0 .28-.06-.27-.12.14-.1-.02 0-.2-.1-.12-.07.4-.3.6-.37 1.07h-.08c-.05.65-.43 1.12-.42 1.57-.12.65-.34.36-.4 1.06l-.17.23c-.1.28.06.24-.07.54-.06-.04-.16.38-.16.18-.3.68-.26 1.47-.66 2.37.07.23-.12.7-.07.86-.06.01-.24.94-.23.4 0-.05.02-.13.04-.12l-.06-.08c-.27.5-.17 1-.32 1.52.06-.15.1-.36.12-.2l-.13.5-.04-.12-.2.73.1-.08c-.12.35-.28.45-.26.88.02.2.18-.32.1.07l-.57 1.78c.1-.04.06.13.03.3h-.08c-.05.67-.2.2-.28.86l-.04-.07.1.2c.01.62-.22.28-.18.97.05-.26.2-.08.08.22l-.05-.1c-.03.18-.01.24-.05.36-.01-.1-.1-.08-.14.18l-.05-.2.02.5c-.16.36-.2.97-.34 1.1 0 0-.23.8-.17 1-.03-.18-.16.26-.2.12.03.23-.05.86-.2 1.08v-.05c-.3.9-.25 1.58-.54 2.38.1-.02-.05.4.08.32-.1.87-.58 1.5-.3 1.87-.07.4-.18.44-.25.63v-.1l-.3 1.47c-.03.27.12.35-.03.82-.03-.17-.06.03-.1.2.02-.12 0-.16-.1.07.01.04.01.1.01.14-.01 0-.01.01-.02 0-.05.3-.02.26.02.12.01.01.02 0 .05-.04-.15.3-.2.87-.3.88l-.35 2.33c-.07.07-.08-.1-.05-.34l-.1.54c-.08-.02.02-.32.05-.48-.27.6-.17 1.33-.46 2.05l.03.17v.04c.03.01.04.18.02.3-.1.1-.16-.04-.24.32-.13.28-.16.83-.2 1.22.06-.2.08-.13.1-.03-.04.18-.13.27-.14.42h-.1c.1-.05-.02.5.01.58-.1.1.01-.3-.03-.36l-.24 1.1c-.02.4.1-.05.14.15-.06.35-.08.7-.22 1.1l.1-.1c-.1.67-.2 1.05-.37 1.47-.43 4.97.7 1.2.7 1.2z"/></g></g></svg>